<svg xmlns="http://www.w3.org/2000/svg" xmlns:xlink="http://www.w3.org/1999/xlink" width="505" height="249.682" viewBox="0 0 505 249.682">
  <defs>
    <clipPath id="clip-path">
      <rect id="Rectángulo_338431" data-name="Rectángulo 338431" width="228.66" height="216.493" fill="none"/>
    </clipPath>
    <clipPath id="clip-path-3">
      <rect id="Rectángulo_338432" data-name="Rectángulo 338432" width="178.419" height="191.497" fill="none"/>
    </clipPath>
    <clipPath id="clip-path-4">
      <rect id="Rectángulo_338433" data-name="Rectángulo 338433" width="173.075" height="195.046" fill="none"/>
    </clipPath>
    <clipPath id="clip-path-5">
      <rect id="Rectángulo_338434" data-name="Rectángulo 338434" width="125.799" height="184.647" fill="none"/>
    </clipPath>
    <clipPath id="clip-path-7">
      <rect id="Rectángulo_338436" data-name="Rectángulo 338436" width="45.621" height="18.482" fill="none"/>
    </clipPath>
    <clipPath id="clip-path-8">
      <rect id="Rectángulo_338437" data-name="Rectángulo 338437" width="32.683" height="16.699" fill="none"/>
    </clipPath>
    <clipPath id="clip-path-9">
      <rect id="Rectángulo_338438" data-name="Rectángulo 338438" width="45.321" height="19.642" fill="none"/>
    </clipPath>
    <clipPath id="clip-path-11">
      <rect id="Rectángulo_338441" data-name="Rectángulo 338441" width="185.565" height="141.49" fill="none"/>
    </clipPath>
    <clipPath id="clip-path-12">
      <rect id="Rectángulo_338442" data-name="Rectángulo 338442" width="11.315" height="8.513" fill="none"/>
    </clipPath>
    <clipPath id="clip-path-13">
      <rect id="Rectángulo_338443" data-name="Rectángulo 338443" width="15.521" height="6.034" fill="#ff6d4b"/>
    </clipPath>
    <clipPath id="clip-path-14">
      <rect id="Rectángulo_338444" data-name="Rectángulo 338444" width="44.073" height="31.906" fill="none"/>
    </clipPath>
    <clipPath id="clip-path-15">
      <rect id="Rectángulo_338446" data-name="Rectángulo 338446" width="65.69" height="31.974" fill="none"/>
    </clipPath>
    <clipPath id="clip-path-17">
      <rect id="Rectángulo_338447" data-name="Rectángulo 338447" width="5.853" height="4.202" fill="none"/>
    </clipPath>
    <clipPath id="clip-path-20">
      <rect id="Rectángulo_338450" data-name="Rectángulo 338450" width="30.254" height="11.375" fill="none"/>
    </clipPath>
    <clipPath id="clip-path-21">
      <rect id="Rectángulo_338451" data-name="Rectángulo 338451" width="28.501" height="10.524" fill="none"/>
    </clipPath>
    <clipPath id="clip-path-22">
      <rect id="Rectángulo_338452" data-name="Rectángulo 338452" width="15.148" height="22.326" fill="none"/>
    </clipPath>
    <clipPath id="clip-path-23">
      <rect id="Rectángulo_338453" data-name="Rectángulo 338453" width="130.94" height="54.406" fill="none"/>
    </clipPath>
    <clipPath id="clip-path-24">
      <rect id="Rectángulo_338454" data-name="Rectángulo 338454" width="130.937" height="54.402" fill="none"/>
    </clipPath>
    <clipPath id="clip-path-25">
      <rect id="Rectángulo_338455" data-name="Rectángulo 338455" width="79.632" height="31.485" fill="none"/>
    </clipPath>
    <clipPath id="clip-path-26">
      <rect id="Rectángulo_338456" data-name="Rectángulo 338456" width="96.037" height="35.84" fill="none"/>
    </clipPath>
    <clipPath id="clip-path-27">
      <rect id="Rectángulo_338457" data-name="Rectángulo 338457" width="7.316" height="5.253" fill="none"/>
    </clipPath>
    <clipPath id="clip-path-29">
      <rect id="Rectángulo_338459" data-name="Rectángulo 338459" width="6.815" height="4.893" fill="none"/>
    </clipPath>
  </defs>
  <g id="Grupo_924097" data-name="Grupo 924097" transform="translate(-810 -885.857)">
    <path id="Trazado_113587" data-name="Trazado 113587" d="M407.367-.029,0-.079V166.866l504.519.013S505,129.515,505,83.425,477.757-.029,407.367-.029Z" transform="translate(810 968.66)" fill="#ff6d4b"/>
    <g id="Grupo_915841" data-name="Grupo 915841" transform="translate(944.34 885.857)">
      <g id="Grupo_915506" data-name="Grupo 915506">
        <g id="Grupo_915420" data-name="Grupo 915420">
          <g id="Grupo_915419" data-name="Grupo 915419" clip-path="url(#clip-path)">
            <path id="Trazado_632427" data-name="Trazado 632427" d="M332.224,88.836l47.716-.073s-2.376-3.085-4.993-3.468c0,0-5.109-15.136-13.626-15.231-7.918-.088-11.078,9.33-11.078,9.33s-3.674-4.217-7.176-2.28-5.478,7.466-5.478,7.466-3.938,2.13-5.365,4.256" transform="translate(-151.28 -31.904)" fill="#ebebeb"/>
            <path id="Trazado_632428" data-name="Trazado 632428" d="M60.341,184.1,0,184.191s-.006-3.856,8.306-4.623c0,0,7.564-16.862,19.154-14.616,7.219,1.4,10.922,11.3,10.922,11.3s5.44-7.8,9.805-6.3,6.967,9.8,6.967,9.8,4.5,2.173,5.187,4.351" transform="translate(0 -75.018)" fill="#ebebeb"/>
            <path id="Trazado_632429" data-name="Trazado 632429" d="M293.071,381.145l-60.341.093s-.006-3.856,8.306-4.623c0,0,7.564-16.862,19.154-14.616,7.219,1.4,10.922,11.3,10.922,11.3s5.44-7.8,9.805-6.3,6.967,9.8,6.967,9.8,4.5,2.173,5.187,4.351" transform="translate(-105.975 -164.744)" fill="#ebebeb"/>
            <path id="Trazado_632430" data-name="Trazado 632430" d="M307.6,15.169l-41.03.063s3.866-3.61,5.587-3.613S278.887-.49,285.306.015s9.837,9.509,9.837,9.509,7.8-2.457,12.461,5.644" transform="translate(-121.386 0)" fill="#ebebeb"/>
            <path id="Trazado_632431" data-name="Trazado 632431" d="M70.689,355.772l-41.03.063s3.866-3.61,5.587-3.613,6.725-12.109,13.144-11.6,9.837,9.51,9.837,9.51,7.8-2.457,12.461,5.644" transform="translate(-13.505 -155.095)" fill="#ebebeb"/>
            <path id="Trazado_632432" data-name="Trazado 632432" d="M64.185,38.457,29.1,38.511s1.74-2.274,3.664-2.561c0,0,3.723-11.142,9.986-11.231,5.822-.083,8.166,6.836,8.166,6.836s2.692-3.109,5.272-1.693S60.23,35.34,60.23,35.34s2.9,1.557,3.955,3.117" transform="translate(-13.25 -11.256)" fill="#ebebeb"/>
            <path id="Trazado_632433" data-name="Trazado 632433" d="M385.835,321.958l-35.087.054s1.741-2.274,3.664-2.561c0,0,3.723-11.142,9.985-11.231,5.822-.083,8.167,6.836,8.167,6.836s2.692-3.109,5.272-1.693,4.045,5.478,4.045,5.478,2.9,1.557,3.955,3.117" transform="translate(-159.715 -140.35)" fill="#ebebeb"/>
          </g>
        </g>
        <g id="Grupo_915431" data-name="Grupo 915431">
          <g id="Grupo_915430" data-name="Grupo 915430" clip-path="url(#clip-path)">
            <path id="Trazado_632434" data-name="Trazado 632434" d="M225.9,119.05a97.065,97.065,0,0,1-18.625,57.331l-.009.014a97.531,97.531,0,1,1-78.89-154.867q4.011,0,7.947.32A96.925,96.925,0,0,1,179,35.675,97.485,97.485,0,0,1,225.9,119.05" transform="translate(-14.051 -9.802)" fill="#455a64"/>
            <g id="Grupo_915423" data-name="Grupo 915423" transform="translate(33.433 11.725)" opacity="0.2">
              <g id="Grupo_915422" data-name="Grupo 915422">
                <g id="Grupo_915421" data-name="Grupo 915421" clip-path="url(#clip-path-3)">
                  <path id="Trazado_632435" data-name="Trazado 632435" d="M163.341,165.08c-1.229,3.278.82,3.415.956,4.78s0,3.961-3.961,7.922-10.517,3.142-11.883,4.78-3.688,8.6-6.966,10.927-3.824.956-8.468,1.912-8.2,6.966-9.561,9.835.273,7.648-3,7.785-4.781-6.966-7.786-10.79-3.961-7.239-4.917-11.746.546-13.931,0-17.619-10.38-10.244-13.932-14.752-8.468-13.522-8.2-16.527a12.224,12.224,0,0,1,4.1-7.513c1.639-1.229.956-1.912,1.229-3s1.639-1.365,1.912-2.731-.82-5.464-2.186-6.146-2.322,1.639-3.142,1.229-3.278-3.278-4.234-3.552-.683,1.776-2.049-.819S79.2,109.9,78.111,108.807s-1.912,1.912-4.507,0-3.688-5.6-4.781-6.146-2.6.137-3.718-2.049.986-6.146,0-5.737-3.112,3.552-3.658.546,2.732-13.112,2.185-18.576A21.831,21.831,0,0,1,68.823,61s.546-3,1.093-4.917,12.293-9.561,13.659-11.746a10.589,10.589,0,0,0,.964-3.884,97.077,97.077,0,0,1,57.743-18.925q4.012,0,7.947.32c.09.125.18.246.273.363,1.183,1.5,2.459,2.459,5.92,3.734s4.278,2.912,3.552,4.278-1.912,1.639-3.278,1.732-2.642-.639-4.1.273-2.914,5.827-4.827,6.1-5.281-4.371-6.01-5.737,1.639-4.281.522-5.646-3.07-1.093-6.168-1.366-10.288.912-10.014,2.1,10.561-.183,10.834,2.185-7.556,6.373-8.922,6.01-3.188-2.732-5.19-3.005-3.644,1.366-4.9,1.55-2.746-1.366-4.658-1-2.368,2-3.371,2.642-3.368.636-3.641,2.093,3,2.278,3.824,3.188-1,4.007-.183,4.644,5.92-3.824,7.2-4.918,2.366-5.827,5.1-5.736,3.644,4.734,4.554,5.19,2.914-1.093,5.919-.456,5.1,7.2,5.644,9.2,1.822,4.007.729,4.827-6.01-.546-6.646-1.822,3.278-3.188,3-3.641a3.9,3.9,0,0,0-3.734-.38c-1.183.713-1.729,2.2-3.005,2.565s-4.644-3.461-5.553-2.368.91,4.554,1.819,5.373,4.281,1.273,4.554,2.186-2.276,2.912-5.373,2.732-5.644-2.552-6.83-1.55-.546,3.641-1.365,4.554-5.281.273-7.466,2.639-3.188,5.92-5.373,7.922-3.185-.546-6.1,2.278-3.368,9.1-3.461,11.29,0,3.914-.727,3.641-1.732-2.186-2-3.369.639-3.188.639-3.914-4.19-4.464-6.649-4.827-4.644,1.639-6.463,3.1-5.1,1.186-6.282,2.368-2.1,11.656-1.186,14.115,2.1,2.459,5.01,1.183,1.273-3.734,3-3.188a4.069,4.069,0,0,1,2.639,3.824c0,1.459-3.458,4.917-3,5.919s3.461-.183,4.917.273,2.185,1.366,1.731,5.1-.183,6.646,2,7.876,3.415-1.776,4.371-1.365,2.322,2.595,3.688,2.459.683-1.366,3.278-2.186,1.639-1.366,2.185-3,2.186-3,3.961-2.186.546,2.049.683,3.415,3.278,1.5,5.737,2.322,3.824,0,8.742,1.639,5.19,6.556,7.239,7.376,8.878-.546,13.8,3,3.551,10.108,6.01,12.02,11.61,4.507,15.161,5.19,4.1-1.776,6.966-1.093,4.507,1.5,5.463,5.463c.841,3.486-9.834,10.79-11.063,14.069" transform="translate(-61.386 -21.527)"/>
                  <path id="Trazado_632436" data-name="Trazado 632436" d="M113.811,154.806c.091.773,2.368,1.093,5.1,2.64s3.733,6.1,5.19,6.01,1-2.186,1.548-2.732,1.457-1.73,0-2.914-2.875-3.734-5.535-4.1-3.115-1.457-4.3-1.366a2.061,2.061,0,0,0-2,2.458" transform="translate(-85.248 -81.094)"/>
                  <path id="Trazado_632437" data-name="Trazado 632437" d="M141.3,169.055c-.406,1.116,0,1.912,2.914,2.64s5.646-.728,4.735-1.32-2.277-.319-1.73-1.32.361-2.459-2-2.185-3.549,1.184-3.914,2.185" transform="translate(-97.717 -87.694)"/>
                  <path id="Trazado_632438" data-name="Trazado 632438" d="M159.241,171.407c-.993.144-1.548,1.875-.546,2.967s1,.911,2.185,0,3.005-1.363,2.55-2.275-3.187-.837-4.189-.692" transform="translate(-105.455 -89.736)"/>
                  <path id="Trazado_632439" data-name="Trazado 632439" d="M174.641,177.835c.446-1.365,2.732-.025,3.734,1.433s.546,3.551,0,5.1-.911,3.369-2.186,2.64.091-2.914-.091-4.188-1.821-3.867-1.457-4.984" transform="translate(-112.933 -92.444)"/>
                  <path id="Trazado_632440" data-name="Trazado 632440" d="M246.688,38.17c-.477,1.143,1.73,1.548,3,2.277s2.277,1.184,3,0a2,2,0,0,0-1.274-2.823c-1-.273-4.28-.546-4.735.546" transform="translate(-145.734 -28.745)"/>
                  <path id="Trazado_632441" data-name="Trazado 632441" d="M278.194,56.4c.841.887,2.277.728,3.278,2s.637,3.46,1.912,4.1,2.185,0,2.277-.911-1.821-3.187-1.639-3.642,2.64.637,3.187,2-.546,3.278.729,3.643,1-1.275,1.548-1.639,1.73-.182,1.639-1.274a8.23,8.23,0,0,0-2.732-4.28,10.221,10.221,0,0,0-4.1-2.186,6.038,6.038,0,0,0-4.918.729c-1,.82-1.7.911-1.184,1.457" transform="translate(-160.031 -36.321)"/>
                  <path id="Trazado_632442" data-name="Trazado 632442" d="M328.4,70.6a1.626,1.626,0,0,1-.514.959c-1.912,1.366-4.19-3.368-6.829-4.278s-3.824-4.281-4.371-3.551-.366,1.729-1.186,2.912-2,.912-2.549,3.188,2.549,6.466,1.822,7.832-1.639.91-3.1.82-1.183,1.183-3.093.637-.276-2.915-3.28-5.737-4.008-3.369-3.365-4.644-.276-3.1,1.09-3.278,2.459,1.822,3.368,2.369,2.1-1.093,2.185-2.552-3.188-3.458-4.371-4.589-1.276-5.245-.819-6.065,1.822-.546,2.185-2.548c.214-1.178-1.65-3.144-3.223-4.565A97.966,97.966,0,0,1,328.4,70.6" transform="translate(-170.836 -33.356)"/>
                  <path id="Trazado_632443" data-name="Trazado 632443" d="M346.985,177.688c.273-2.915-1.183-3.1.273-8.468s-1.546-11.11-2.639-12.293-3.461-.819-5.373.364-.546,2.095-1.822,2.548-2.548-.273-3.731-.18-2.278,3.1-4.827,3-4.188-3.734-6.1-6.329-5.829-4.234-7.1-7.422,1.182-8.1.636-11.837-3-2.915-3.461-5.007.366-1.093,1-3.1-.729-3.095.546-6.556,3.552-5.19,3.005-6.737-2.276-4.1-2.369-5.914,1.732-1.735,5.19-4.286,4.371-2.366,7.012-1.456a37.837,37.837,0,0,0,5.827,1.639c1.549.273,3.644,4.281,4.281,4.1s.729-1.365,1-3.095a3.864,3.864,0,0,1,1.137-1.962,97.582,97.582,0,0,1-3.852,108.964c9.288-14.178,11.091-33.065,11.364-35.977" transform="translate(-175.827 -58.812)"/>
                </g>
              </g>
            </g>
            <g id="Grupo_915426" data-name="Grupo 915426" transform="translate(16.807 11.725)" opacity="0.1">
              <g id="Grupo_915425" data-name="Grupo 915425">
                <g id="Grupo_915424" data-name="Grupo 915424" clip-path="url(#clip-path-4)">
                  <path id="Trazado_632444" data-name="Trazado 632444" d="M203.933,180.716A97.526,97.526,0,1,1,128.381,21.527q4.015,0,7.95.318c.725.057,1.451.125,2.171.2a89.363,89.363,0,1,0,65.431,158.667" transform="translate(-30.858 -21.527)"/>
                </g>
              </g>
            </g>
            <g id="Grupo_915429" data-name="Grupo 915429" transform="translate(86.054 11.725)" opacity="0.3">
              <g id="Grupo_915428" data-name="Grupo 915428">
                <g id="Grupo_915427" data-name="Grupo 915427" clip-path="url(#clip-path-5)">
                  <path id="Trazado_632445" data-name="Trazado 632445" d="M283.8,119.05a97.031,97.031,0,0,1-18.626,57.329c0,.005-.005.011-.005.017a98,98,0,0,1-35.029,29.778A98.589,98.589,0,0,0,260.9,178.618c.005-.005.005-.011.011-.017a98.08,98.08,0,0,0-71.367-155.43c-2.631-.216-5.3-.323-7.989-.323A98.305,98.305,0,0,0,158,25.695a97.36,97.36,0,0,1,28.276-4.168q4.015,0,7.949.318a96.957,96.957,0,0,1,42.666,13.829,97.932,97.932,0,0,1,26.048,23.093,96.039,96.039,0,0,1,6.084,8.652A97.031,97.031,0,0,1,283.8,119.05" transform="translate(-158 -21.527)" fill="#fff"/>
                </g>
              </g>
            </g>
          </g>
        </g>
        <g id="Grupo_915442" data-name="Grupo 915442">
          <g id="Grupo_915441" data-name="Grupo 915441" clip-path="url(#clip-path)">
            <g id="Grupo_915434" data-name="Grupo 915434" transform="translate(134.115 68.078)" opacity="0.7">
              <g id="Grupo_915433" data-name="Grupo 915433">
                <g id="Grupo_915432" data-name="Grupo 915432" clip-path="url(#clip-path-7)">
                  <path id="Trazado_632446" data-name="Trazado 632446" d="M246.243,143.478a210.854,210.854,0,0,0,45.621-9.312,6.974,6.974,0,0,0-4.684-1.108c0-.022-4.774-9.639-12.895-7.837-7.557,1.626-10.628,8.98-10.623,9.007,0,0-3.526-2.484-6.91-.59s-5.306,6.17-5.306,6.175-3.816,1.988-5.2,3.665" transform="translate(-246.243 -124.996)" fill="#fff"/>
                </g>
              </g>
            </g>
            <path id="Trazado_632447" data-name="Trazado 632447" d="M80.123,164.142a210.82,210.82,0,0,1-55.635-21.023c.013-.036-.034-2.748,7.371.472.009-.036,6.737-8.865,17.407-3,6.652,3.62,10.122,11.976,10.117,12s5.1-4.045,9.219-1.787c4.12,2.273,6.588,8.966,6.586,8.973s4.281,2.639,4.934,4.373" transform="translate(-11.151 -63.102)" fill="#fff"/>
            <path id="Trazado_632448" data-name="Trazado 632448" d="M351.2,163.7a210.838,210.838,0,0,1-55.635,21.023c-.006-.036.016-2.748,7.909-5.322-.011-.036,7.233-14.154,17.992-16.365,6.69-1.409,10.037,4.377,10.042,4.4s4.981-7.845,8.9-8.626c3.921-.766,6.213,4.123,6.214,4.129s3.986-.5,4.579.764" transform="translate(-134.588 -72.279)" fill="#fff"/>
            <path id="Trazado_632449" data-name="Trazado 632449" d="M191.27,78.618a211.125,211.125,0,0,1-39.812-2.387c0,.008,3.734-2.087,5.4-1.884s6.52-8.071,12.754-7.27,9.548,7.43,9.547,7.444,7.589-1.668,12.112,4.1" transform="translate(-68.967 -30.519)" fill="#fff"/>
            <path id="Trazado_632450" data-name="Trazado 632450" d="M156.631,357.157a210.951,210.951,0,0,1-39.52-5.979c0,.008,3.682-1.748,5.327-1.394s6.442-7.481,12.626-6.118,9.489,8.289,9.487,8.3,7.556-.986,12.08,5.186" transform="translate(-53.327 -156.418)" fill="#fff"/>
            <g id="Grupo_915437" data-name="Grupo 915437" transform="translate(30.568 132.684)" opacity="0.7">
              <g id="Grupo_915436" data-name="Grupo 915436">
                <g id="Grupo_915435" data-name="Grupo 915435" clip-path="url(#clip-path-8)">
                  <path id="Trazado_632451" data-name="Trazado 632451" d="M88.809,260.315a210.72,210.72,0,0,1-32.684-11.184,4.529,4.529,0,0,1,3.347-.454c0-.012,3.409-6.726,9.218-4.67,5.407,1.885,7.61,7.619,7.606,7.634a4.748,4.748,0,0,1,4.956.277,13.555,13.555,0,0,1,3.812,5.115,20.152,20.152,0,0,1,3.745,3.283" transform="translate(-56.125 -243.616)" fill="#fff"/>
                </g>
              </g>
            </g>
            <g id="Grupo_915440" data-name="Grupo 915440" transform="translate(142.092 166.868)" opacity="0.7">
              <g id="Grupo_915439" data-name="Grupo 915439">
                <g id="Grupo_915438" data-name="Grupo 915438" clip-path="url(#clip-path-9)">
                  <path id="Trazado_632452" data-name="Trazado 632452" d="M260.89,326.021a210.782,210.782,0,0,0,45.322-11.074,6.668,6.668,0,0,0-4.639-.923c0-.023-4.726-9.451-12.788-7.336-7.5,1.918-10.56,9.39-10.554,9.417,0,0-3.506-2.348-6.874-.325s-5.283,6.373-5.282,6.377-3.8,2.134-5.185,3.864" transform="translate(-260.89 -306.38)" fill="#fff"/>
                </g>
              </g>
            </g>
          </g>
        </g>
        <g id="Grupo_915444" data-name="Grupo 915444" transform="translate(36.669 35.883)">
          <g id="Grupo_915507" data-name="Grupo 915507">
            <path id="Trazado_632453" data-name="Trazado 632453" d="M366.289,246.605a2.817,2.817,0,0,0-5.633,0c-.216,2.175,1.252,4.145,2.816,5.942,1.566-1.8,3.033-3.767,2.817-5.942m-2.817,1.564a1.543,1.543,0,1,1,1.545-1.542,1.542,1.542,0,0,1-1.545,1.542" transform="translate(-200.886 -146.896)" fill="#ff6d4b"/>
            <path id="Trazado_632454" data-name="Trazado 632454" d="M196.158,317.414a3.773,3.773,0,0,0-7.546,0c-.289,2.913,1.676,5.552,3.772,7.959,2.1-2.407,4.064-5.046,3.774-7.959m-3.774,2.1a2.066,2.066,0,1,1,2.069-2.066,2.066,2.066,0,0,1-2.069,2.066" transform="translate(-122.542 -178.704)" fill="#ff6d4b"/>
            <path id="Trazado_632455" data-name="Trazado 632455" d="M336.039,114.2a3.773,3.773,0,0,0-7.546,0c-.289,2.913,1.676,5.552,3.771,7.959,2.1-2.407,4.064-5.046,3.774-7.959m-3.774,2.1a2.066,2.066,0,1,1,2.069-2.066,2.066,2.066,0,0,1-2.069,2.066" transform="translate(-186.237 -86.17)" fill="#ff6d4b"/>
            <path id="Trazado_632456" data-name="Trazado 632456" d="M239.119,258.141a2.816,2.816,0,0,0-5.633,0c-.216,2.175,1.251,4.145,2.815,5.942,1.566-1.8,3.034-3.767,2.817-5.942m-2.817,1.564a1.543,1.543,0,1,1,1.545-1.542,1.542,1.542,0,0,1-1.545,1.542" transform="translate(-142.978 -152.149)" fill="#ffc727"/>
            <path id="Trazado_632457" data-name="Trazado 632457" d="M132.111,207.326a2.817,2.817,0,0,0-5.633,0c-.216,2.175,1.251,4.145,2.815,5.942,1.566-1.8,3.034-3.767,2.818-5.942m-2.818,1.564a1.543,1.543,0,1,1,1.545-1.542,1.542,1.542,0,0,1-1.545,1.542" transform="translate(-94.252 -129.01)" fill="#ff6d4b"/>
            <path id="Trazado_632458" data-name="Trazado 632458" d="M72.981,117.376a2.817,2.817,0,0,0-5.633,0c-.216,2.175,1.251,4.145,2.815,5.942,1.566-1.8,3.034-3.767,2.818-5.942m-2.818,1.564a1.543,1.543,0,1,1,1.545-1.542,1.542,1.542,0,0,1-1.545,1.542" transform="translate(-67.326 -88.051)" fill="#ff6d4b"/>
            <path id="Trazado_632459" data-name="Trazado 632459" d="M141.766,69.649a3.773,3.773,0,0,0-7.546,0c-.289,2.913,1.676,5.552,3.772,7.959,2.1-2.407,4.064-5.046,3.774-7.959m-3.774,2.1a2.066,2.066,0,1,1,2.069-2.066,2.066,2.066,0,0,1-2.069,2.066" transform="translate(-97.774 -65.883)" fill="#ff6d4b"/>
          </g>
        </g>
        <g id="Grupo_915503" data-name="Grupo 915503">
          <g id="Grupo_915502" data-name="Grupo 915502" clip-path="url(#clip-path)">
            <g id="Grupo_915447" data-name="Grupo 915447" transform="translate(6.978 29.42)" opacity="0.6">
              <g id="Grupo_915446" data-name="Grupo 915446">
                <g id="Grupo_915445" data-name="Grupo 915445" clip-path="url(#clip-path-11)">
                  <path id="Trazado_632460" data-name="Trazado 632460" d="M116.623,281.108s-93.839,20.431-103.2,4.479C9.056,278.149,29.605,267.1,29.605,267.1s-13.672,9.739-7.433,13.57c11.63,7.141,75.82-9.069,75.82-9.069Z" transform="translate(-12.812 -151.043)" fill="#ebebeb"/>
                  <path id="Trazado_632461" data-name="Trazado 632461" d="M100.869,306.007l14.03-2.054c2.333-.358,4.673-.663,7-1.037,2.334-.337,4.663-.7,6.992-1.069s4.657-.732,6.977-1.144c2.331-.355,4.639-.828,6.967-1.209,4.634-.87,9.251-1.806,13.884-2.809a117.661,117.661,0,0,1-13.622,4.056c-2.309.532-4.626,1.036-6.953,1.483s-4.664.834-7,1.234c-2.344.338-4.685.7-7.036.984q-1.763.22-3.528.411c-1.176.134-2.353.259-3.533.358-4.713.438-9.441.755-14.18.793" transform="translate(-52.909 -164.518)" fill="#ebebeb"/>
                  <path id="Trazado_632462" data-name="Trazado 632462" d="M34.534,278.661a5.448,5.448,0,0,0-.477.843,4.432,4.432,0,0,0-.325.882,3.45,3.45,0,0,0-.111.884,2.027,2.027,0,0,0,.2.8,2.565,2.565,0,0,0,1.164,1.128,7.387,7.387,0,0,0,1.664.634,20.388,20.388,0,0,0,3.7.514c1.259.1,2.535.113,3.811.1s2.559-.032,3.844-.084c1.285-.035,2.57-.107,3.86-.162,2.58-.111,5.164-.277,7.779-.288a60.1,60.1,0,0,1-7.66,1.557c-.644.1-1.291.186-1.942.246s-1.3.147-1.95.192c-1.3.1-2.613.15-3.927.173a24.961,24.961,0,0,1-7.9-1.036,7.515,7.515,0,0,1-1.869-.954,3.429,3.429,0,0,1-1.333-1.75,2.907,2.907,0,0,1,.237-2.113,4.948,4.948,0,0,1,1.224-1.568" transform="translate(-21.991 -156.309)" fill="#ebebeb"/>
                  <path id="Trazado_632463" data-name="Trazado 632463" d="M177.143,102.34s94-19.669,96.034-38.054c.948-8.572-22.324-10.27-22.324-10.27s15.665,2.837,12.326,9.352c-7.2,14.051-86.037,38.973-86.037,38.973" transform="translate(-87.641 -54.016)" fill="#ebebeb"/>
                  <path id="Trazado_632464" data-name="Trazado 632464" d="M233.508,120.016c-4.341,1.9-8.786,3.542-13.268,5.067-1.118.391-2.243.758-3.371,1.115s-2.256.719-3.388,1.065c-2.262.7-4.547,1.326-6.825,1.975-2.295.589-4.583,1.2-6.893,1.731s-4.627,1.028-6.952,1.485a117.652,117.652,0,0,1-14.09,1.859c4.638-.975,9.235-2.007,13.82-3.106,2.281-.6,4.58-1.114,6.853-1.741,2.286-.572,4.56-1.194,6.836-1.805s4.551-1.234,6.819-1.88c2.278-.61,4.539-1.286,6.814-1.912Z" transform="translate(-88.359 -84.069)" fill="#ebebeb"/>
                  <path id="Trazado_632465" data-name="Trazado 632465" d="M307.174,61.386a3.341,3.341,0,0,1,1.652,1.2,2.912,2.912,0,0,1,.461.99,3.63,3.63,0,0,1,.073,1.106,5.386,5.386,0,0,1-.68,2.048,10.619,10.619,0,0,1-1.194,1.728,28.143,28.143,0,0,1-6.275,5.168c-1.143.71-2.3,1.388-3.481,2.019-.59.318-1.188.617-1.788.912s-1.2.6-1.81.86a61.464,61.464,0,0,1-7.471,2.876c2.271-1.419,4.6-2.687,6.889-4.01,1.138-.672,2.3-1.3,3.422-1.986,1.138-.661,2.266-1.335,3.363-2.048,1.115-.686,2.2-1.418,3.243-2.185a26.808,26.808,0,0,0,2.969-2.461,11.556,11.556,0,0,0,1.223-1.428,4.611,4.611,0,0,0,.8-1.618,2.943,2.943,0,0,0,.094-.875,2.76,2.76,0,0,0-.228-.866,3.5,3.5,0,0,0-1.264-1.428" transform="translate(-137.511 -57.372)" fill="#ebebeb"/>
                </g>
              </g>
            </g>
            <path id="Trazado_632466" data-name="Trazado 632466" d="M220.328,293.929c-.709-.819-10.574-7.707-11.315-8.223l1.684-.29s9.019,7.662,9.631,8.513" transform="translate(-95.175 -129.966)" fill="#ffc727"/>
            <g id="Grupo_915450" data-name="Grupo 915450" transform="translate(113.838 155.45)" opacity="0.5">
              <g id="Grupo_915449" data-name="Grupo 915449">
                <g id="Grupo_915448" data-name="Grupo 915448" clip-path="url(#clip-path-12)">
                  <path id="Trazado_632467" data-name="Trazado 632467" d="M220.328,293.929c-.709-.819-10.574-7.707-11.315-8.223l1.684-.29s9.019,7.662,9.631,8.513" transform="translate(-209.013 -285.416)" fill="#fff"/>
                </g>
              </g>
            </g>
            <path id="Trazado_632468" data-name="Trazado 632468" d="M214.236,294.234v.009a.106.106,0,0,1-.009.032c-.078.175-.754.327-1.509.428a.062.062,0,0,0-.028,0,6.62,6.62,0,0,1-2.116.041c-.212-.147-7.33-3.708-11.688-5.885-.06-.028-.115-.056-.17-.083a.244.244,0,0,0-.036-.018h0v0c-.211-.106-.419-.207-.617-.308-.741-.368-1.357-.676-1.795-.893s-.7-.35-.7-.35l7.325-1.256c.419.29,3.75,2.614,6.7,4.735.1.069.2.143.3.216.276.2.543.391.81.58a42.861,42.861,0,0,1,3.506,2.692.332.332,0,0,1,.023.037.069.069,0,0,1,.009.023" transform="translate(-89.051 -130.21)" fill="#ffc727"/>
            <g id="Grupo_915453" data-name="Grupo 915453" transform="translate(109.664 158.572)" opacity="0.1">
              <g id="Grupo_915452" data-name="Grupo 915452">
                <g id="Grupo_915451" data-name="Grupo 915451" clip-path="url(#clip-path-13)">
                  <path id="Trazado_632469" data-name="Trazado 632469" d="M216.871,296.6v.009a.1.1,0,0,1-.009.032c-.078.175-.754.327-1.509.428a.062.062,0,0,0-.028,0,6.621,6.621,0,0,1-2.117.041c-.216-.147-7.519-3.8-11.858-5.968.713.345,10.077,4.85,11.982,2.7a42.869,42.869,0,0,1,3.506,2.692.329.329,0,0,1,.023.037.068.068,0,0,1,.009.023" transform="translate(-201.35 -291.148)" fill="#ff6d4b"/>
                </g>
              </g>
            </g>
            <path id="Trazado_632470" data-name="Trazado 632470" d="M352.1,290.151v0c0,.98-5.4,1.3-6.134,1.086-.8-.23-59.556-23.352-59.556-23.352l21.617-8.559c.166.115.373.263.621.432.087.06.18.124.276.189,3.985,2.761,15.884,11.011,26.279,18.272.207.142.41.285.612.428.276.189.547.382.819.571,7.206,5.034,13.454,9.428,15.465,10.928" transform="translate(-130.418 -118.088)" fill="#ff6d4b"/>
            <path id="Trazado_632471" data-name="Trazado 632471" d="M370.174,289.243c-5.264-3.93-39.581-27.71-44.073-30.82l2.738-1.086s39.977,30.406,41.183,31.617a.436.436,0,0,1,.152.29" transform="translate(-148.492 -117.18)" fill="#ffc727"/>
            <g id="Grupo_915456" data-name="Grupo 915456" transform="translate(177.609 140.157)" opacity="0.5">
              <g id="Grupo_915455" data-name="Grupo 915455">
                <g id="Grupo_915454" data-name="Grupo 915454" clip-path="url(#clip-path-14)">
                  <path id="Trazado_632472" data-name="Trazado 632472" d="M370.174,289.243c-5.264-3.93-39.581-27.71-44.073-30.82l2.738-1.086s39.977,30.406,41.183,31.617a.436.436,0,0,1,.152.29" transform="translate(-326.101 -257.337)" fill="#fff"/>
                </g>
              </g>
            </g>
            <g id="Grupo_915462" data-name="Grupo 915462" transform="translate(155.992 141.243)" opacity="0.5">
              <g id="Grupo_915461" data-name="Grupo 915461">
                <g id="Grupo_915460" data-name="Grupo 915460" clip-path="url(#clip-path-15)">
                  <g id="Grupo_915459" data-name="Grupo 915459" opacity="0.1">
                    <g id="Grupo_915458" data-name="Grupo 915458">
                      <g id="Grupo_915457" data-name="Grupo 915457" clip-path="url(#clip-path-15)">
                        <path id="Trazado_632473" data-name="Trazado 632473" d="M352.1,290.151v0c0,.98-5.4,1.3-6.134,1.086-.8-.23-59.556-23.352-59.556-23.352l21.617-8.559s-5.347,6.115,7.34,15.521c8.646,6.409,17.849,7.739,21.268,4.371,7.206,5.034,13.454,9.428,15.465,10.928" transform="translate(-286.41 -259.33)"/>
                      </g>
                    </g>
                  </g>
                </g>
              </g>
            </g>
            <path id="Trazado_632474" data-name="Trazado 632474" d="M314.036,286.147c-1.67.811-3.486,1.448-3.618-.23-.053-.688.48-1.424,3.166-2.717.63-.3,2.169-.977,2.621.419.436,1.344-1.541,2.222-2.17,2.528" transform="translate(-141.349 -128.761)" fill="#ffc727"/>
            <g id="Grupo_915465" data-name="Grupo 915465" transform="translate(169.066 154.009)" opacity="0.1">
              <g id="Grupo_915464" data-name="Grupo 915464">
                <g id="Grupo_915463" data-name="Grupo 915463" clip-path="url(#clip-path-17)">
                  <path id="Trazado_632475" data-name="Trazado 632475" d="M314.036,286.147c-1.67.811-3.486,1.448-3.618-.23-.053-.688.48-1.424,3.166-2.717.63-.3,2.169-.977,2.621.419.436,1.344-1.541,2.222-2.17,2.528" transform="translate(-310.415 -282.769)"/>
                </g>
              </g>
            </g>
            <path id="Trazado_632476" data-name="Trazado 632476" d="M339.065,296.391c-1.67.811-3.486,1.448-3.618-.23-.053-.688.48-1.424,3.166-2.717.63-.3,2.169-.977,2.621.419.436,1.343-1.541,2.222-2.17,2.528" transform="translate(-152.746 -133.425)" fill="#ffc727"/>
            <g id="Grupo_915468" data-name="Grupo 915468" transform="translate(182.697 159.588)" opacity="0.1">
              <g id="Grupo_915467" data-name="Grupo 915467">
                <g id="Grupo_915466" data-name="Grupo 915466" clip-path="url(#clip-path-17)">
                  <path id="Trazado_632477" data-name="Trazado 632477" d="M339.065,296.391c-1.67.811-3.486,1.448-3.618-.23-.053-.688.48-1.424,3.166-2.717.63-.3,2.169-.977,2.621.419.436,1.343-1.541,2.222-2.17,2.528" transform="translate(-335.443 -293.013)"/>
                </g>
              </g>
            </g>
            <path id="Trazado_632478" data-name="Trazado 632478" d="M364.093,306.635c-1.67.811-3.486,1.448-3.618-.23-.053-.688.48-1.424,3.166-2.717.63-.3,2.169-.977,2.621.419.436,1.344-1.541,2.222-2.17,2.528" transform="translate(-164.143 -138.09)" fill="#ffc727"/>
            <g id="Grupo_915471" data-name="Grupo 915471" transform="translate(196.329 165.167)" opacity="0.1">
              <g id="Grupo_915470" data-name="Grupo 915470">
                <g id="Grupo_915469" data-name="Grupo 915469" clip-path="url(#clip-path-17)">
                  <path id="Trazado_632479" data-name="Trazado 632479" d="M364.093,306.635c-1.67.811-3.486,1.448-3.618-.23-.053-.688.48-1.424,3.166-2.717.63-.3,2.169-.977,2.621.419.436,1.344-1.541,2.222-2.17,2.528" transform="translate(-360.472 -303.257)"/>
                </g>
              </g>
            </g>
            <path id="Trazado_632480" data-name="Trazado 632480" d="M341.124,273.623c-1.643,2.922-5.37,3.975-7.731,4.919-6.267,2.5-10.813,3.911-13.054-1.78a7.182,7.182,0,0,1-.5-2.061c-.368-4.293,4.077-6.438,6.336-7.624l0,0c2.724-1.436,4.652-2.365,6.088-2.968a11.149,11.149,0,0,1,4.463-1.15c1.265-.041,4.127.276,5.066,5.527a7.456,7.456,0,0,1-.672,5.144" transform="translate(-145.63 -119.736)" fill="#ffba5b"/>
            <path id="Trazado_632481" data-name="Trazado 632481" d="M351.607,270.212c0,3.2-2,5.79-4.467,5.79s-4.467-2.592-4.467-5.79,2-5.79,4.467-5.79,4.467,2.592,4.467,5.79" transform="translate(-156.038 -120.406)" fill="#263238"/>
            <path id="Trazado_632482" data-name="Trazado 632482" d="M351.522,270.776c0,2.826-1.767,5.116-3.947,5.116s-3.947-2.291-3.947-5.116,1.767-5.116,3.947-5.116,3.947,2.29,3.947,5.116" transform="translate(-156.473 -120.97)" fill="#455a64"/>
            <path id="Trazado_632483" data-name="Trazado 632483" d="M161.921,263.754l-1.035.377-2.328.846c-2.089-.906-4.96-2.144-8.061-3.479-7.809-3.354-17.048-7.293-18.829-7.9.065.018.143.041.225.069.06.018.129.041.2.064s.175.055.271.087c.051.019.1.032.157.051.184.06.391.124.617.2l.63.207c.524.17,1.118.368,1.772.584.2.069.4.133.607.2.184.06.373.125.566.189.106.036.208.069.313.1.313.106.63.211.962.322.211.074.423.143.639.216,2.5.838,5.4,1.813,8.292,2.789l.787.263c1.04.354,2.079.7,3.088,1.044,1.914.649,3.736,1.261,5.328,1.8.258.087.506.175.75.258.861.29,1.643.552,2.319.782l.009,0c.207.069.4.138.594.2.1.032.188.064.276.092.046.018.092.032.138.046,1.082.368,1.712.579,1.712.579" transform="translate(-59.955 -115.48)" fill="#ffc727"/>
            <g id="Grupo_915474" data-name="Grupo 915474" transform="translate(71.712 138.123)" opacity="0.5">
              <g id="Grupo_915473" data-name="Grupo 915473">
                <g id="Grupo_915472" data-name="Grupo 915472" clip-path="url(#clip-path-20)">
                  <path id="Trazado_632484" data-name="Trazado 632484" d="M161.921,263.754l-1.035.377-2.328.846c-2.089-.906-4.96-2.144-8.061-3.479-7.809-3.354-17.048-7.293-18.829-7.9.065.018.143.041.225.069.06.018.129.041.2.064s.175.055.271.087c.051.019.1.032.157.051.184.06.391.124.617.2l.63.207c.524.17,1.118.368,1.772.584.2.069.4.133.607.2.184.06.373.125.566.189.106.036.208.069.313.1.313.106.63.211.962.322.211.074.423.143.639.216,2.5.838,5.4,1.813,8.292,2.789l.787.263c1.04.354,2.079.7,3.088,1.044,1.914.649,3.736,1.261,5.328,1.8.258.087.506.175.75.258.861.29,1.643.552,2.319.782l.009,0c.207.069.4.138.594.2.1.032.188.064.276.092.046.018.092.032.138.046,1.082.368,1.712.579,1.712.579" transform="translate(-131.667 -253.602)" fill="#fff"/>
                </g>
              </g>
            </g>
            <path id="Trazado_632485" data-name="Trazado 632485" d="M152.147,264.605l-6.244,2.273s-13.942-6.469-22.257-10.523l-.092-.041-.111-.056c-.869-.423-1.675-.819-2.393-1.173a19.86,19.86,0,0,1-3.46-1.909c.23-.46,5.407-.575,7.477,0,.018,0,.032.009.055.014a1.348,1.348,0,0,1,.133.041c1.721.584,10.409,4.279,18.038,7.556.06.027.115.051.175.074.207.092.414.179.617.267,3.1,1.334,5.973,2.572,8.062,3.479" transform="translate(-53.545 -115.108)" fill="#ff6d4b"/>
            <g id="Grupo_915477" data-name="Grupo 915477" transform="translate(70.101 141.248)" opacity="0.1">
              <g id="Grupo_915476" data-name="Grupo 915476">
                <g id="Grupo_915475" data-name="Grupo 915475" clip-path="url(#clip-path-21)">
                  <path id="Trazado_632486" data-name="Trazado 632486" d="M157.211,267.589l-6.244,2.273s-13.942-6.469-22.257-10.523c1.376.584,15.485,6.8,18.965,5.937a1.993,1.993,0,0,0,1.474-1.165c3.1,1.334,5.973,2.572,8.062,3.479" transform="translate(-128.71 -259.339)"/>
                </g>
              </g>
            </g>
            <path id="Trazado_632487" data-name="Trazado 632487" d="M197.862,234.907l-15.148,7.284s.156-12.985.271-22.326q.007-.483.014-.953c0-.258,0-.511.009-.759.041-3.2.078-5.775.092-6.944.056-3.759.46-4.523,1.454-3.911a47.031,47.031,0,0,1,6.75,6.175c1.09,1.408,3.506,9.934,5.08,15.8.014.051.028.1.037.147.092.34.184.672.267.989.7,2.637,1.173,4.5,1.173,4.5" transform="translate(-83.2 -94.309)" fill="#ff6d4b"/>
            <g id="Grupo_915480" data-name="Grupo 915480" transform="translate(99.514 125.557)" opacity="0.1">
              <g id="Grupo_915479" data-name="Grupo 915479">
                <g id="Grupo_915478" data-name="Grupo 915478" clip-path="url(#clip-path-22)">
                  <path id="Trazado_632488" data-name="Trazado 632488" d="M197.862,245.572l-15.148,7.284s.156-12.985.271-22.326c2.232,4.974,6.635,11.77,13.7,10.542.7,2.637,1.173,4.5,1.173,4.5" transform="translate(-182.713 -230.53)"/>
                </g>
              </g>
            </g>
            <path id="Trazado_632489" data-name="Trazado 632489" d="M163.092,243.68c-1.559-3.9,5.061-7.439,12.577-10.813s81.6-36.045,92.335-38.959,23.241,1.077,25.355,7.209c3.173,9.2-10.189,16.913-58.179,36.811-6.289,2.608-34.416,9.36-50.233,9.411-16.91.054-21.09-1.742-21.857-3.659" transform="translate(-74.16 -87.854)" fill="#ffc727"/>
            <g id="Grupo_915483" data-name="Grupo 915483" transform="translate(88.702 105.081)" opacity="0.5">
              <g id="Grupo_915482" data-name="Grupo 915482">
                <g id="Grupo_915481" data-name="Grupo 915481" clip-path="url(#clip-path-23)">
                  <path id="Trazado_632490" data-name="Trazado 632490" d="M163.092,243.68c-1.559-3.9,5.061-7.439,12.577-10.813s81.6-36.045,92.335-38.959,23.241,1.077,25.355,7.209c3.173,9.2-10.189,16.913-58.179,36.811-6.289,2.608-34.416,9.36-50.233,9.411-16.91.054-21.09-1.742-21.857-3.659" transform="translate(-162.863 -192.935)" fill="#fff"/>
                </g>
              </g>
            </g>
            <g id="Grupo_915486" data-name="Grupo 915486" transform="translate(88.703 105.083)" opacity="0.1">
              <g id="Grupo_915485" data-name="Grupo 915485">
                <g id="Grupo_915484" data-name="Grupo 915484" clip-path="url(#clip-path-24)">
                  <path id="Trazado_632491" data-name="Trazado 632491" d="M235.183,237.93c-6.29,2.609-34.419,9.359-50.234,9.41-16.91.055-21.088-1.739-21.857-3.658-.815-2.039.607-3.981,3.225-5.853a2.677,2.677,0,0,0,.2,1.15c.7,1.744,4.491,3.373,19.832,3.322,14.352-.046,34.994-11.668,40.7-14.033,43.543-18.056,60.55-19.557,57.67-27.909-1.252-3.635-6.53-6.442-12.76-7.211,9.654-1.155,19.542,2.577,21.4,7.97,3.175,9.2-10.188,16.915-58.176,36.811" transform="translate(-162.864 -192.939)"/>
                </g>
              </g>
            </g>
            <path id="Trazado_632492" data-name="Trazado 632492" d="M206.4,261.885l1.7-.736v2.5l-1.7.736Z" transform="translate(-93.987 -118.915)" fill="#455a64"/>
            <path id="Trazado_632493" data-name="Trazado 632493" d="M212.105,259.375l1.817-.787v2.5l-1.817.787Z" transform="translate(-96.583 -117.75)" fill="#455a64"/>
            <path id="Trazado_632494" data-name="Trazado 632494" d="M218.02,256.816l1.817-.787v2.5l-1.817.787Z" transform="translate(-99.276 -116.584)" fill="#455a64"/>
            <path id="Trazado_632495" data-name="Trazado 632495" d="M223.933,254.255l1.817-.787v2.5l-1.817.787Z" transform="translate(-101.969 -115.418)" fill="#455a64"/>
            <path id="Trazado_632496" data-name="Trazado 632496" d="M229.847,251.7l1.817-.787v2.5l-1.817.786Z" transform="translate(-104.662 -114.253)" fill="#455a64"/>
            <path id="Trazado_632497" data-name="Trazado 632497" d="M235.761,249.136l1.817-.787v2.5l-1.817.787Z" transform="translate(-107.355 -113.087)" fill="#455a64"/>
            <path id="Trazado_632498" data-name="Trazado 632498" d="M241.675,246.576l1.818-.787v2.5l-1.818.787Z" transform="translate(-110.048 -111.921)" fill="#455a64"/>
            <path id="Trazado_632499" data-name="Trazado 632499" d="M247.589,244.016l1.817-.787v2.5l-1.817.787Z" transform="translate(-112.741 -110.756)" fill="#455a64"/>
            <path id="Trazado_632500" data-name="Trazado 632500" d="M253.5,241.456l1.817-.787v2.5l-1.817.787Z" transform="translate(-115.434 -109.59)" fill="#455a64"/>
            <path id="Trazado_632501" data-name="Trazado 632501" d="M259.417,238.9l1.817-.787v2.5l-1.817.787Z" transform="translate(-118.127 -108.424)" fill="#455a64"/>
            <path id="Trazado_632502" data-name="Trazado 632502" d="M265.331,236.336l1.818-.787v2.5l-1.818.787Z" transform="translate(-120.82 -107.259)" fill="#455a64"/>
            <path id="Trazado_632503" data-name="Trazado 632503" d="M271.245,233.776l1.817-.787v2.5l-1.817.787Z" transform="translate(-123.513 -106.093)" fill="#455a64"/>
            <path id="Trazado_632504" data-name="Trazado 632504" d="M277.159,231.217l1.817-.787v2.5l-1.817.787Z" transform="translate(-126.206 -104.927)" fill="#455a64"/>
            <path id="Trazado_632505" data-name="Trazado 632505" d="M283.073,228.657l1.818-.787v2.5l-1.818.787Z" transform="translate(-128.899 -103.762)" fill="#455a64"/>
            <path id="Trazado_632506" data-name="Trazado 632506" d="M288.987,226.1l1.818-.787v2.5l-1.818.786Z" transform="translate(-131.592 -102.596)" fill="#455a64"/>
            <path id="Trazado_632507" data-name="Trazado 632507" d="M294.9,223.537l1.817-.787v2.5l-1.817.787Z" transform="translate(-134.285 -101.43)" fill="#455a64"/>
            <path id="Trazado_632508" data-name="Trazado 632508" d="M300.815,220.977l1.818-.787v2.5l-1.818.787Z" transform="translate(-136.978 -100.265)" fill="#455a64"/>
            <path id="Trazado_632509" data-name="Trazado 632509" d="M306.729,218.417l1.818-.787v2.5l-1.818.787Z" transform="translate(-139.671 -99.099)" fill="#455a64"/>
            <path id="Trazado_632510" data-name="Trazado 632510" d="M312.643,215.857l1.818-.787v2.5l-1.818.786Z" transform="translate(-142.364 -97.933)" fill="#455a64"/>
            <path id="Trazado_632511" data-name="Trazado 632511" d="M318.557,213.3l1.817-.787v2.5l-1.817.787Z" transform="translate(-145.057 -96.768)" fill="#455a64"/>
            <path id="Trazado_632512" data-name="Trazado 632512" d="M324.47,210.737l1.817-.787v2.5l-1.817.787Z" transform="translate(-147.749 -95.602)" fill="#455a64"/>
            <path id="Trazado_632513" data-name="Trazado 632513" d="M332.2,207.391v2.5l-1.817.787v-2.5Z" transform="translate(-150.443 -94.437)" fill="#455a64"/>
            <path id="Trazado_632514" data-name="Trazado 632514" d="M338.116,204.831v2.5l-1.818.787v-2.5Z" transform="translate(-153.135 -93.271)" fill="#455a64"/>
            <path id="Trazado_632515" data-name="Trazado 632515" d="M344.03,202.271v2.5l-1.818.787v-2.5Z" transform="translate(-155.828 -92.105)" fill="#455a64"/>
            <path id="Trazado_632516" data-name="Trazado 632516" d="M349.944,199.711v2.5l-1.817.787v-2.5Z" transform="translate(-158.521 -90.94)" fill="#455a64"/>
            <path id="Trazado_632517" data-name="Trazado 632517" d="M366.924,196.515a8.877,8.877,0,0,1,3.377-1.573v1.666c-1.086-.041-2.195-.069-3.377-.092" transform="translate(-167.081 -88.768)" fill="#455a64"/>
            <path id="Trazado_632518" data-name="Trazado 632518" d="M378.251,194.2v2.3c-.847-.078-1.693-.129-2.549-.17v-2.01a13.482,13.482,0,0,1,2.549-.12" transform="translate(-171.078 -88.424)" fill="#455a64"/>
            <path id="Trazado_632519" data-name="Trazado 632519" d="M389.659,197.587c-.713-.019-1.366-.143-2.024-.221s-1.289-.193-1.928-.253c-.925-.143-1.841-.244-2.747-.331v-2.3a12.713,12.713,0,0,1,3.221.879,12.041,12.041,0,0,1,1.845.943,7.034,7.034,0,0,1,.846.6,9.872,9.872,0,0,1,.787.676" transform="translate(-174.383 -88.56)" fill="#455a64"/>
            <path id="Trazado_632520" data-name="Trazado 632520" d="M203.327,208.805l-21.348,10.273s-33.933-18.192-58.284-31.485l-.055-.028-.009,0c-13-7.1-22.92-12.612-22.759-12.824.41-.552,6.948-.483,9.534-.133a5.128,5.128,0,0,1,.741.133c1.1.3,39.489,14.522,66.376,24.494,14.6,5.416,25.8,9.575,25.8,9.575" transform="translate(-45.931 -79.383)" fill="#ff6d4b"/>
            <g id="Grupo_915489" data-name="Grupo 915489" transform="translate(77.763 108.21)" opacity="0.1">
              <g id="Grupo_915488" data-name="Grupo 915488">
                <g id="Grupo_915487" data-name="Grupo 915487" clip-path="url(#clip-path-25)">
                  <path id="Trazado_632521" data-name="Trazado 632521" d="M222.409,219.893l-21.348,10.273s-33.933-18.192-58.284-31.485c1.905.961,45.559,22.961,51.26,19.657,2.154-1.247,2.715-4.464,2.568-8.02,14.6,5.416,25.8,9.575,25.8,9.575" transform="translate(-142.777 -198.681)"/>
                </g>
              </g>
            </g>
            <path id="Trazado_632522" data-name="Trazado 632522" d="M214.415,207.621l-6.34,3.051c-16.22-6.8-83.684-33.471-89.334-35.707-.064-.028-.124-.051-.175-.069s-.1-.036-.138-.046l-.051-.019a5.07,5.07,0,0,1,.741.133c1.688.46,95.3,32.656,95.3,32.656" transform="translate(-53.904 -79.61)" fill="#ffc727"/>
            <g id="Grupo_915492" data-name="Grupo 915492" transform="translate(64.474 95.221)" opacity="0.5">
              <g id="Grupo_915491" data-name="Grupo 915491">
                <g id="Grupo_915490" data-name="Grupo 915490" clip-path="url(#clip-path-26)">
                  <path id="Trazado_632523" data-name="Trazado 632523" d="M214.415,207.621l-6.34,3.051c-16.22-6.8-83.684-33.471-89.334-35.707-.064-.028-.124-.051-.175-.069s-.1-.036-.138-.046l-.051-.019a5.07,5.07,0,0,1,.741.133c1.688.46,95.3,32.656,95.3,32.656" transform="translate(-118.378 -174.831)" fill="#fff"/>
                </g>
              </g>
            </g>
            <path id="Trazado_632524" data-name="Trazado 632524" d="M206.975,232.413c-2.088,1.014-4.358,1.81-4.521-.287-.068-.861.6-1.779,3.957-3.4.788-.379,2.711-1.222,3.277.523.545,1.679-1.926,2.778-2.712,3.159" transform="translate(-92.187 -103.908)" fill="#ffc727"/>
            <g id="Grupo_915495" data-name="Grupo 915495" transform="translate(110.263 124.283)" opacity="0.1">
              <g id="Grupo_915494" data-name="Grupo 915494">
                <g id="Grupo_915493" data-name="Grupo 915493" clip-path="url(#clip-path-27)">
                  <path id="Trazado_632525" data-name="Trazado 632525" d="M206.975,232.413c-2.088,1.014-4.358,1.81-4.521-.287-.068-.861.6-1.779,3.957-3.4.788-.379,2.711-1.222,3.277.523.545,1.679-1.926,2.778-2.712,3.159" transform="translate(-202.45 -228.191)"/>
                </g>
              </g>
            </g>
            <path id="Trazado_632526" data-name="Trazado 632526" d="M173.806,215.656c-2.088,1.015-4.358,1.81-4.521-.288-.068-.86.6-1.778,3.957-3.394.788-.38,2.711-1.222,3.277.522.545,1.68-1.926,2.778-2.712,3.159" transform="translate(-77.083 -96.278)" fill="#ffc727"/>
            <g id="Grupo_915498" data-name="Grupo 915498" transform="translate(92.198 115.157)" opacity="0.1">
              <g id="Grupo_915497" data-name="Grupo 915497">
                <g id="Grupo_915496" data-name="Grupo 915496" clip-path="url(#clip-path-27)">
                  <path id="Trazado_632527" data-name="Trazado 632527" d="M173.806,215.656c-2.088,1.015-4.358,1.81-4.521-.288-.068-.86.6-1.778,3.957-3.394.788-.38,2.711-1.222,3.277.522.545,1.68-1.926,2.778-2.712,3.159" transform="translate(-169.281 -211.435)"/>
                </g>
              </g>
            </g>
            <path id="Trazado_632528" data-name="Trazado 632528" d="M140.787,198.941c-1.944.944-4.059,1.686-4.212-.268-.063-.8.558-1.657,3.686-3.163.734-.353,2.526-1.138,3.053.487.508,1.564-1.794,2.588-2.527,2.943" transform="translate(-62.189 -88.798)" fill="#ffc727"/>
            <g id="Grupo_915501" data-name="Grupo 915501" transform="translate(74.383 106.21)" opacity="0.1">
              <g id="Grupo_915500" data-name="Grupo 915500">
                <g id="Grupo_915499" data-name="Grupo 915499" clip-path="url(#clip-path-29)">
                  <path id="Trazado_632529" data-name="Trazado 632529" d="M140.787,198.941c-1.944.944-4.059,1.686-4.212-.268-.063-.8.558-1.657,3.686-3.163.734-.353,2.526-1.138,3.053.487.508,1.564-1.794,2.588-2.527,2.943" transform="translate(-136.571 -195.008)"/>
                </g>
              </g>
            </g>
            <path id="Trazado_632530" data-name="Trazado 632530" d="M242.434,223.224c-1.643,2.922-5.37,3.976-7.73,4.919-6.267,2.5-10.813,3.912-13.055-1.78a7.18,7.18,0,0,1-.5-2.061c-.368-4.293,4.077-6.437,6.336-7.624l0,0c2.724-1.436,4.652-2.365,6.088-2.968a11.139,11.139,0,0,1,4.463-1.15c1.265-.041,4.127.276,5.066,5.527a7.458,7.458,0,0,1-.672,5.144" transform="translate(-100.691 -96.786)" fill="#ffba5b"/>
            <path id="Trazado_632531" data-name="Trazado 632531" d="M252.917,219.813c0,3.2-2,5.79-4.467,5.79s-4.467-2.592-4.467-5.79,2-5.79,4.467-5.79,4.467,2.592,4.467,5.79" transform="translate(-111.099 -97.457)" fill="#263238"/>
            <path id="Trazado_632532" data-name="Trazado 632532" d="M252.831,220.377c0,2.826-1.767,5.116-3.947,5.116s-3.947-2.291-3.947-5.116,1.767-5.116,3.947-5.116,3.947,2.29,3.947,5.116" transform="translate(-111.533 -98.02)" fill="#455a64"/>
            <path id="Trazado_632533" data-name="Trazado 632533" d="M135,254.671l-.63-.206.63.206" transform="translate(-61.187 -115.872)" fill="#ffc727"/>
          </g>
        </g>
      </g>
    </g>
  </g>
</svg>
