<svg xmlns="http://www.w3.org/2000/svg" xmlns:xlink="http://www.w3.org/1999/xlink" width="400" height="334.441" viewBox="0 0 400 334.441">
  <defs>
    <clipPath id="clip-path">
      <rect id="Rectángulo_338556" data-name="Rectángulo 338556" width="400" height="334.441" fill="none"/>
    </clipPath>
  </defs>
  <g id="Grupo_924096" data-name="Grupo 924096" transform="translate(0)">
    <g id="Grupo_915693" data-name="Grupo 915693" transform="translate(0)" clip-path="url(#clip-path)">
      <path id="Trazado_638092" data-name="Trazado 638092" d="M48.9,89.727c.01-.327.021-.659.047-.992s.052-.659.078-.992.073-.675.114-1.017.093-.68.14-1.023l.016-.057v-.031c.057-.317.114-.644.171-.96q.1-.537.218-1.075c.078-.363.161-.722.249-1.08s.187-.732.286-1.1c.088-.3.171-.6.26-.9l.026-.047a.545.545,0,0,1,.042-.151c.109-.353.218-.711.337-1.064s.249-.706.374-1.064c.119-.332.244-.675.379-1.017s.265-.664.41-1.007c.109-.26.218-.53.337-.794l.021-.047a.706.706,0,0,0,.057-.145c.151-.337.306-.675.467-1.007.171-.363.348-.737.529-1.106.2-.41.421-.831.644-1.241.239-.446.493-.893.742-1.329.042-.073.083-.151.13-.218.047-.1.1-.187.151-.28.493-.841,1.018-1.666,1.547-2.471q.631-.927,1.3-1.832l.01-.021.01-.031c.3-.4.613-.8.929-1.2.26-.337.524-.664.794-.992s.529-.623.8-.934.535-.6.81-.888l.14-.145.052-.067c.213-.228.436-.457.649-.675.291-.3.581-.581.877-.867s.6-.566.9-.841.613-.545.924-.8c.14-.119.291-.234.441-.353l.1-.093c.119-.1.249-.2.374-.3.291-.239.6-.467.893-.7.3-.208.6-.426.9-.633.286-.2.571-.389.872-.571.28-.182.576-.363.872-.529.062-.042.13-.083.2-.119.213-.13.436-.26.649-.369q.428-.234.841-.436c.28-.14.555-.27.836-.389s.545-.244.815-.348c.286-.109.555-.218.831-.306l.187-.067.062-.021c.2-.067.389-.13.581-.192.28-.088.571-.161.857-.234s.566-.13.841-.192c.3-.057.607-.109.9-.145.218-.026.431-.052.644-.062l.088-.01.192-.026c.332-.016.654-.031.976-.031.363,0,.722.026,1.08.047.4.042.8.1,1.2.177l.031.016.057.016a9.479,9.479,0,0,1,1.365.374,10.41,10.41,0,0,1,1.672.779l18.621,10.808a10.591,10.591,0,0,0-3.052-1.147l-.062-.016a12.337,12.337,0,0,0-3.478-.187.257.257,0,0,0-.088.01,17.041,17.041,0,0,0-3.821.825l-.057.026a23.021,23.021,0,0,0-4.163,1.916,30.84,30.84,0,0,0-4.106,2.85l-.109.088a40.327,40.327,0,0,0-3.79,3.546.445.445,0,0,0-.052.068,44.877,44.877,0,0,0-3.483,4.179l-.016.031a49.47,49.47,0,0,0-3,4.573l-.125.223a48.657,48.657,0,0,0-2.429,4.817l-.031.057A48.266,48.266,0,0,0,69.1,91.263l-.01.062a38.93,38.93,0,0,0-1.189,5.1l-.01.026a32.027,32.027,0,0,0-.4,5.015,24.052,24.052,0,0,0,.42,4.438l.021.119a16.761,16.761,0,0,0,1.178,3.655l.021.036a11.99,11.99,0,0,0,1.557,2.4c.187.239.363.493.571.711a10.308,10.308,0,0,0,2.263,1.869l-18.61-10.818a10.379,10.379,0,0,1-2.263-1.858c-.2-.218-.379-.472-.571-.716a8.4,8.4,0,0,1-.753-.94,11.486,11.486,0,0,1-.779-1.412l-.026-.047-.016-.047c-.166-.348-.317-.7-.452-1.075-.135-.348-.254-.711-.363-1.085-.1-.343-.192-.69-.27-1.049a3.105,3.105,0,0,1-.088-.426l-.021-.13c-.036-.161-.067-.3-.1-.457-.057-.317-.1-.639-.14-.981-.042-.317-.078-.649-.109-.981s-.047-.644-.057-.971l-.031-.986v-.062c0-.306.01-.623.021-.929" transform="translate(43.408 218.344)" fill="#001121"/>
      <path id="Trazado_638093" data-name="Trazado 638093" d="M68.344,57c11.395-6.582,20.728-1.267,20.77,11.836.031,13.082-9.245,29.112-20.64,35.694s-20.723,1.293-20.759-11.8S56.949,63.577,68.344,57" transform="translate(63.195 227.077)" fill="#00486e"/>
      <path id="Trazado_638094" data-name="Trazado 638094" d="M63.945,57.588c8.488-4.9,15.444-.934,15.464,8.82S72.526,88.1,64.049,93s-15.454.971-15.475-8.794c-.026-9.744,6.883-21.709,15.371-26.615" transform="translate(68.435 232.552)" fill="#cedde1"/>
      <path id="Trazado_638095" data-name="Trazado 638095" d="M49.957,72.012a3.507,3.507,0,0,1,.026-.395c0-.119.016-.249.021-.384.021-.135.031-.265.052-.4s.031-.27.052-.4l.01-.031v-.01c.016-.119.036-.239.062-.369s.057-.286.088-.42.062-.286.1-.431.062-.286.109-.436c.031-.109.062-.239.1-.358l.005-.016.01-.057c.047-.14.1-.275.14-.415s.088-.28.145-.426c.052-.125.093-.26.151-.395s.1-.27.161-.4a3.4,3.4,0,0,0,.135-.317l.005-.021.026-.057c.062-.13.119-.26.182-.389.073-.151.135-.3.208-.436.088-.166.166-.327.254-.493s.2-.348.3-.529a.335.335,0,0,1,.047-.083c.026-.036.042-.078.062-.109.192-.332.4-.659.613-.976.161-.249.327-.488.5-.727l.01-.005.01-.005c.119-.166.234-.317.363-.478.1-.135.213-.27.317-.395s.2-.249.311-.369.213-.239.327-.348l.042-.067.026-.01c.083-.1.171-.187.26-.28.114-.109.228-.228.348-.337s.234-.228.353-.327c.119-.114.239-.218.363-.317.057-.052.114-.1.166-.14l.042-.036c.057-.042.1-.083.151-.119.114-.1.234-.182.358-.27s.234-.176.353-.254a3.794,3.794,0,0,1,.337-.223c.109-.067.223-.145.343-.213l.073-.042a1.794,1.794,0,0,1,.26-.14c.109-.067.218-.119.327-.177s.223-.1.327-.151.218-.1.322-.14l.327-.119.078-.026.031-.01c.078-.021.145-.047.223-.073.1-.036.223-.062.327-.093.119-.031.228-.047.343-.073l.348-.062c.088-.01.177-.016.265-.021l.031-.01h.067q.195-.016.389-.016c.135,0,.286.005.426.016.161.021.317.042.472.073l.005.005.036.01a4.406,4.406,0,0,1,.53.14,4.55,4.55,0,0,1,.664.311l1.864,1.08a3.9,3.9,0,0,0-1.2-.457h-.021a5.028,5.028,0,0,0-1.381-.078h-.026a7.466,7.466,0,0,0-1.511.327l-.016.01a8.522,8.522,0,0,0-1.646.753,11.7,11.7,0,0,0-1.614,1.121l-.047.036a16.209,16.209,0,0,0-1.49,1.391l-.021.031A17.645,17.645,0,0,0,55.4,63.6l-.016.016a20.923,20.923,0,0,0-1.173,1.8.573.573,0,0,0-.047.1,18.146,18.146,0,0,0-.966,1.9l-.01.016a19.879,19.879,0,0,0-.742,2l-.005.031a18.443,18.443,0,0,0-.472,2.009v.005a13.7,13.7,0,0,0-.156,1.978,8.677,8.677,0,0,0,.166,1.739l.01.057a5.893,5.893,0,0,0,.457,1.417l.01.026a4.932,4.932,0,0,0,.467.722,4.226,4.226,0,0,0,1.256,1.23l-1.858-1.075a4.247,4.247,0,0,1-1.256-1.236c-.042-.062-.119-.088-.156-.156a4.616,4.616,0,0,1-.311-.55v-.016l-.01-.016a4.431,4.431,0,0,1-.176-.431c-.057-.135-.1-.286-.145-.426-.031-.13-.073-.27-.1-.4-.021-.062-.021-.119-.042-.177l-.005-.047c-.01-.057-.026-.119-.031-.176a2.343,2.343,0,0,1-.057-.389,3.1,3.1,0,0,1-.042-.384l-.031-.374c0-.14-.01-.26-.01-.389v-.026c0-.119,0-.244.01-.363" transform="translate(74.973 239.656)" fill="#002d3b"/>
      <path id="Trazado_638096" data-name="Trazado 638096" d="M57.623,58.5c-4.485,2.59-8.145,8.929-8.135,14.084s3.7,7.216,8.186,4.62c4.485-2.58,8.145-8.882,8.129-14.037s-3.7-7.257-8.181-4.667" transform="translate(77.296 240.528)" fill="#001121"/>
      <path id="Trazado_638097" data-name="Trazado 638097" d="M25.994,77.456c.01-.337.021-.659.047-.992s.047-.664.083-1,.068-.675.109-1.007.093-.69.151-1.033l.005-.057v-.031l.171-.95c.067-.358.14-.722.218-1.08s.161-.727.26-1.08c.083-.369.176-.732.28-1.106q.117-.444.265-.888l.01-.057a.544.544,0,0,0,.042-.151c.114-.348.223-.706.353-1.064.109-.358.239-.706.363-1.054s.244-.685.384-1.023c.125-.337.26-.67.4-1.012.109-.26.218-.524.337-.784l.026-.057a.828.828,0,0,1,.062-.14c.14-.343.291-.675.452-1,.176-.374.353-.737.535-1.111.2-.41.426-.836.644-1.246.244-.446.488-.882.742-1.319.042-.078.083-.151.13-.228a3.191,3.191,0,0,1,.161-.28c.488-.831,1-1.661,1.547-2.471.41-.618.841-1.23,1.282-1.832l.016-.016.021-.021c.3-.415.6-.815.919-1.21.26-.332.524-.67.794-1,.26-.306.529-.623.8-.924s.535-.6.81-.9l.135-.14a.222.222,0,0,1,.067-.073c.208-.223.426-.457.644-.675.291-.3.576-.581.872-.867s.6-.561.914-.841c.3-.27.6-.54.914-.794.14-.125.291-.244.441-.363l.1-.088c.119-.1.249-.2.369-.3.3-.239.6-.462.908-.685.286-.218.587-.436.888-.644.286-.187.581-.389.872-.566s.576-.358.867-.535c.067-.042.135-.078.2-.119.223-.13.436-.249.654-.369.286-.151.566-.291.851-.436q.4-.195.825-.389c.275-.125.545-.234.815-.348.286-.109.566-.213.841-.306.057-.026.109-.042.176-.067l.062-.01c.2-.078.389-.14.576-.2.291-.088.576-.156.862-.234s.566-.13.841-.187c.311-.052.613-.109.9-.151l.649-.062a.258.258,0,0,0,.083-.01,1.154,1.154,0,0,1,.192-.016c.332-.021.659-.042.986-.042.353.01.711.026,1.069.057a9.148,9.148,0,0,1,1.2.177l.031.005.052.021a10.046,10.046,0,0,1,1.37.369,9.727,9.727,0,0,1,1.682.789l18.61,10.8a10.477,10.477,0,0,0-3.047-1.152l-.057-.016a12.237,12.237,0,0,0-3.488-.182l-.088.005a17.225,17.225,0,0,0-3.816.825.173.173,0,0,1-.062.026,23.542,23.542,0,0,0-4.158,1.916,30.988,30.988,0,0,0-4.106,2.85L61,56.4a41.027,41.027,0,0,0-3.79,3.546c-.01.026-.036.042-.052.067A45.659,45.659,0,0,0,53.684,64.2l-.021.021a49.377,49.377,0,0,0-2.985,4.573c-.052.083-.093.151-.14.234a49.755,49.755,0,0,0-2.424,4.817l-.026.057a44.2,44.2,0,0,0-1.879,5.087l-.021.057a38.838,38.838,0,0,0-1.178,5.113l-.021.016a32.145,32.145,0,0,0-.4,5.015,23.59,23.59,0,0,0,.431,4.444.331.331,0,0,0,.026.119A16.175,16.175,0,0,0,46.214,97.4l.016.047a11.834,11.834,0,0,0,1.557,2.388c.187.239.369.5.571.716a10.353,10.353,0,0,0,2.258,1.864L32.021,91.607a10.665,10.665,0,0,1-2.274-1.869c-.2-.213-.369-.472-.571-.716a9.334,9.334,0,0,1-.753-.929,11.631,11.631,0,0,1-.779-1.417l-.016-.042-.026-.047c-.166-.353-.317-.706-.452-1.08-.135-.353-.254-.716-.363-1.085-.1-.337-.192-.7-.27-1.054-.036-.135-.057-.286-.088-.426l-.026-.13c-.031-.151-.062-.3-.083-.446-.068-.322-.114-.644-.156-.981s-.078-.659-.1-.992c-.026-.317-.052-.639-.062-.971-.01-.317-.021-.649-.021-.986V78.38c0-.312,0-.618.01-.924" transform="translate(185.172 166.872)" fill="#001121"/>
      <path id="Trazado_638098" data-name="Trazado 638098" d="M45.455,44.723C56.85,38.141,66.178,43.467,66.22,56.559S56.99,85.682,45.585,92.254c-11.389,6.577-20.728,1.3-20.765-11.8S34.06,51.3,45.455,44.723" transform="translate(204.936 175.611)" fill="#00486e"/>
      <path id="Trazado_638099" data-name="Trazado 638099" d="M41.038,45.306c8.5-4.9,15.444-.929,15.48,8.82.021,9.759-6.883,21.689-15.366,26.589s-15.444.976-15.475-8.783,6.878-21.72,15.361-26.626" transform="translate(210.189 181.081)" fill="#cedde1"/>
      <path id="Trazado_638100" data-name="Trazado 638100" d="M27.056,59.737c0-.13.016-.26.021-.389s.021-.26.026-.394.031-.26.052-.4.031-.265.052-.4l.01-.021v-.021c.016-.114.036-.239.057-.369.036-.135.062-.275.093-.426s.062-.28.1-.426.067-.286.109-.426c.031-.119.073-.239.1-.369l.01-.01.021-.052c.036-.145.083-.285.13-.426s.1-.28.145-.415.1-.27.151-.4.1-.26.161-.4c.047-.1.093-.208.14-.317v-.021L28.468,54c.057-.14.114-.27.176-.4l.208-.436c.088-.166.166-.327.249-.483.1-.182.2-.358.306-.529a.28.28,0,0,1,.047-.088l.062-.109c.192-.337.4-.664.613-.981.161-.249.332-.488.509-.722v-.005l.016-.01c.114-.166.234-.317.353-.478.109-.135.218-.265.322-.395s.2-.249.311-.369.213-.239.322-.348l.047-.057.026-.021c.083-.088.171-.187.26-.27.114-.119.223-.234.343-.343s.239-.223.358-.332a4.176,4.176,0,0,1,.363-.317c.057-.047.109-.088.166-.14.021-.005.026-.021.042-.036.057-.042.1-.078.151-.119.119-.1.239-.182.358-.27l.348-.254c.119-.073.234-.151.343-.223s.228-.145.343-.208l.078-.047c.078-.047.166-.093.254-.14l.332-.176c.1-.047.218-.1.327-.151a3.075,3.075,0,0,1,.327-.135,2.329,2.329,0,0,1,.317-.119l.078-.031.031-.01a2.224,2.224,0,0,0,.223-.073c.114-.026.223-.057.332-.088l.337-.078c.114-.021.239-.042.358-.052a1.368,1.368,0,0,1,.249-.031h.036l.067-.01c.13-.005.26-.016.389-.016a3.737,3.737,0,0,1,.42.026,3.455,3.455,0,0,1,.472.073h.021l.021.005a3.36,3.36,0,0,1,.535.151,3.831,3.831,0,0,1,.664.3l1.869,1.08a4.114,4.114,0,0,0-1.2-.452h-.021A4.831,4.831,0,0,0,40.241,46h-.026a7,7,0,0,0-1.505.337l-.026.01a9.046,9.046,0,0,0-1.64.742,11.3,11.3,0,0,0-1.609,1.132.079.079,0,0,0-.052.031,14.369,14.369,0,0,0-1.49,1.4l-.026.021A21.138,21.138,0,0,0,32.5,51.322l-.005.016a16.061,16.061,0,0,0-1.173,1.807.453.453,0,0,0-.057.093,18.571,18.571,0,0,0-.966,1.895l-.005.021a18.741,18.741,0,0,0-.748,2l-.01.026a15.743,15.743,0,0,0-.457,2.009l-.01.005a13.727,13.727,0,0,0-.156,1.988,8.7,8.7,0,0,0,.166,1.734l.01.052a6.058,6.058,0,0,0,.457,1.428l.01.021a5.164,5.164,0,0,0,.467.716,3.951,3.951,0,0,0,1.261,1.23l-1.869-1.075a4.4,4.4,0,0,1-1.251-1.23c-.042-.067-.119-.088-.156-.156a3.355,3.355,0,0,1-.3-.555l-.01-.016-.01-.016c-.062-.14-.125-.28-.176-.431-.052-.135-.1-.275-.145-.415-.031-.135-.073-.275-.1-.415-.01-.057-.026-.109-.031-.166l-.016-.052c-.01-.062-.026-.119-.031-.182a3.184,3.184,0,0,1-.057-.379,3.306,3.306,0,0,1-.042-.389c-.016-.125-.016-.254-.021-.379s-.01-.26-.01-.389V60.1c-.01-.119,0-.239,0-.358" transform="translate(216.727 188.188)" fill="#002d3b"/>
      <path id="Trazado_638101" data-name="Trazado 638101" d="M34.719,46.218c-4.485,2.59-8.14,8.939-8.129,14.094.016,5.139,3.7,7.205,8.186,4.62s8.145-8.892,8.14-14.047c-.026-5.15-3.712-7.257-8.2-4.667" transform="translate(219.051 189.062)" fill="#001121"/>
      <path id="Trazado_638102" data-name="Trazado 638102" d="M3.979,64c.005-.322.021-.654.042-.992s.052-.67.083-1,.073-.67.114-1.012.093-.68.14-1.033l.021-.052V59.88c.052-.317.1-.633.161-.95.073-.358.145-.716.213-1.08.083-.358.171-.722.26-1.08s.187-.727.291-1.1c.078-.3.176-.6.265-.9l.016-.057.036-.14c.109-.358.223-.711.343-1.069s.244-.706.363-1.059.254-.675.395-1.017c.119-.337.26-.675.4-1.007.114-.26.223-.53.337-.794l.026-.052.057-.145c.151-.332.3-.664.462-1,.176-.374.348-.742.535-1.111.208-.415.426-.831.644-1.251.239-.446.488-.883.742-1.319a2.195,2.195,0,0,1,.13-.218l.151-.291c.488-.831,1.012-1.656,1.557-2.466.41-.618.836-1.225,1.272-1.827l.021-.021.021-.026c.306-.4.6-.81.924-1.21q.389-.5.794-.981c.26-.317.53-.633.8-.94s.535-.6.8-.893c.047-.052.093-.088.14-.14a.276.276,0,0,1,.067-.068q.3-.343.639-.685c.286-.286.581-.576.872-.857.306-.286.6-.571.908-.851s.607-.529.919-.794c.145-.125.3-.234.436-.363a.793.793,0,0,0,.114-.083c.125-.1.244-.2.363-.3.3-.249.6-.467.908-.7s.592-.436.893-.633c.286-.2.576-.389.867-.576s.581-.358.872-.535c.067-.042.135-.078.2-.109.223-.13.436-.254.654-.374q.428-.226.841-.436c.28-.135.555-.265.836-.389.265-.125.545-.239.825-.353s.555-.208.825-.306a1.754,1.754,0,0,1,.176-.057l.078-.021c.187-.062.379-.14.566-.192.291-.088.576-.166.851-.228.291-.078.571-.145.851-.2.311-.057.607-.109.908-.145.208-.031.426-.052.633-.073a.2.2,0,0,0,.083-.01c.067,0,.135-.005.2-.01.337-.026.654-.036.981-.036.363,0,.722.021,1.069.047.41.042.81.1,1.2.177l.042.01.052.021a11.372,11.372,0,0,1,1.36.369,10.214,10.214,0,0,1,1.687.784L57.915,38.591a10.323,10.323,0,0,0-3.042-1.158l-.052-.01a12.082,12.082,0,0,0-3.488-.182l-.088.005a16.62,16.62,0,0,0-3.816.831l-.073.016A24.377,24.377,0,0,0,43.2,40a32.114,32.114,0,0,0-4.1,2.85l-.114.088A39.775,39.775,0,0,0,35.2,46.5l-.062.057a45.473,45.473,0,0,0-3.473,4.189l-.021.036a49.21,49.21,0,0,0-2.985,4.563c-.052.083-.088.161-.13.228a50.557,50.557,0,0,0-2.445,4.817l-.026.057a48.656,48.656,0,0,0-1.879,5.093l-.016.052A38.419,38.419,0,0,0,22.983,70.7v.026a30.87,30.87,0,0,0-.415,5.015,23.154,23.154,0,0,0,.426,4.433.315.315,0,0,0,.031.125A16.22,16.22,0,0,0,24.2,83.957l.016.036a11.627,11.627,0,0,0,1.557,2.4c.187.239.363.493.571.711A10.257,10.257,0,0,0,28.6,88.966L10,78.153a10,10,0,0,1-2.253-1.869,7.634,7.634,0,0,1-.581-.706c-.244-.317-.529-.587-.758-.94a15.134,15.134,0,0,1-.784-1.412l-.01-.047-.026-.047c-.161-.348-.311-.7-.452-1.08-.13-.348-.249-.706-.358-1.08-.1-.343-.192-.69-.28-1.059-.026-.13-.057-.28-.078-.426-.016-.042-.016-.088-.026-.119-.031-.156-.073-.3-.093-.452-.057-.322-.1-.649-.156-.986-.026-.322-.067-.649-.088-.992-.031-.311-.052-.639-.067-.955s-.016-.664-.021-1v-.057c0-.306.005-.618.016-.929" transform="translate(321.513 110.526)" fill="#001121"/>
      <path id="Trazado_638103" data-name="Trazado 638103" d="M23.433,31.277c11.395-6.582,20.728-1.251,20.759,11.836s-9.23,29.122-20.624,35.7S2.84,80.11,2.8,67.018c-.026-13.092,9.24-29.159,20.635-35.741" transform="translate(341.283 119.257)" fill="#00486e"/>
      <path id="Trazado_638104" data-name="Trazado 638104" d="M19.021,31.861c8.493-4.9,15.439-.934,15.47,8.82S27.617,62.375,19.125,67.27s-15.439.971-15.47-8.789,6.883-21.72,15.366-26.62" transform="translate(346.536 124.736)" fill="#cedde1"/>
      <path id="Trazado_638105" data-name="Trazado 638105" d="M5.029,46.29c.01-.14.01-.265.016-.389s.016-.265.031-.395.026-.265.047-.4.036-.275.057-.4l.01-.026V44.67c.021-.13.036-.254.062-.374.026-.14.057-.286.083-.431s.067-.275.1-.42.083-.291.119-.436c.031-.119.062-.239.1-.358l.005-.021.01-.052c.047-.14.083-.275.14-.426.052-.135.1-.27.14-.415.052-.13.1-.26.156-.395s.1-.27.161-.4c.042-.109.083-.213.13-.322l.01-.016.021-.057c.067-.125.119-.26.187-.4s.13-.28.208-.426c.083-.166.161-.332.249-.488.1-.187.2-.358.306-.535a.265.265,0,0,0,.036-.088c.026-.031.047-.073.073-.109.192-.327.4-.654.607-.976.161-.239.337-.488.514-.716v-.005l.005-.01c.119-.171.239-.327.363-.488.109-.125.208-.26.317-.384s.208-.249.322-.379.208-.228.317-.348l.047-.052L10,35.119l.265-.27c.114-.119.223-.228.343-.337s.239-.228.358-.337.234-.208.353-.317c.057-.052.114-.088.177-.135l.042-.036.151-.114c.119-.093.239-.182.348-.27s.239-.177.358-.254a2.756,2.756,0,0,1,.343-.223c.114-.078.223-.151.343-.218.021-.005.047-.031.078-.036a2.063,2.063,0,0,1,.254-.14c.114-.062.223-.119.322-.176.114-.057.228-.1.337-.161.1-.042.213-.083.317-.13s.218-.083.332-.119l.073-.031.021-.01c.083-.021.151-.047.228-.073.119-.036.228-.062.337-.088s.223-.057.327-.078c.13-.026.244-.042.358-.057a2.186,2.186,0,0,1,.26-.021l.026-.01.078-.01c.135-.005.265-.01.389-.005q.21,0,.42.016c.156.016.317.042.472.073l.021.005.021.01a3.115,3.115,0,0,1,.535.14,3.678,3.678,0,0,1,.664.311l1.858,1.08a4.139,4.139,0,0,0-1.2-.462H19.6a4.671,4.671,0,0,0-1.381-.067h-.031a6.519,6.519,0,0,0-1.511.322l-.021.005a9.125,9.125,0,0,0-1.635.758,12.932,12.932,0,0,0-1.62,1.121l-.042.031a16.274,16.274,0,0,0-1.49,1.4l-.026.031a18.52,18.52,0,0,0-1.365,1.646l-.005.01a19.282,19.282,0,0,0-1.184,1.807l-.047.093a19.224,19.224,0,0,0-.966,1.9l-.005.01a20.728,20.728,0,0,0-.748,2.014l-.01.021a18.152,18.152,0,0,0-.467,2.014v.01a12.275,12.275,0,0,0-.156,1.978,9.073,9.073,0,0,0,.166,1.739l.01.047a6.486,6.486,0,0,0,.457,1.428l.01.026A5.121,5.121,0,0,0,8,51.7a4.232,4.232,0,0,0,1.251,1.22L7.4,51.839A4.089,4.089,0,0,1,6.14,50.614c-.047-.062-.119-.093-.156-.156a4.786,4.786,0,0,1-.311-.555v-.01l-.01-.016c-.062-.145-.125-.286-.182-.436-.047-.135-.093-.28-.145-.42-.036-.135-.067-.27-.1-.415a.859.859,0,0,1-.036-.166l-.01-.047a1.212,1.212,0,0,1-.031-.182c-.026-.125-.042-.254-.067-.384-.01-.125-.021-.26-.042-.384-.005-.119-.01-.249-.01-.384s-.01-.254-.01-.389V46.29Z" transform="translate(353.083 131.84)" fill="#002d3b"/>
      <path id="Trazado_638106" data-name="Trazado 638106" d="M12.7,32.771c-4.485,2.59-8.145,8.934-8.129,14.084s3.7,7.211,8.186,4.62,8.145-8.887,8.129-14.042-3.7-7.247-8.186-4.662" transform="translate(355.403 132.713)" fill="#001121"/>
      <path id="Trazado_638107" data-name="Trazado 638107" d="M74.631,58.078.205,14.82a.721.721,0,0,1,.109-.057c.047-.021.088-.052.135-.067s.088-.036.135-.062l.135-.057.135-.052.135-.047a.568.568,0,0,1,.135-.031,1.028,1.028,0,0,1,.135-.031c.047-.016.1-.016.151-.031l.114-.01H1.56a1.561,1.561,0,0,1,.161-.005c.052,0,.109,0,.171.005l.192.031a1.211,1.211,0,0,1,.244.073,1.153,1.153,0,0,1,.27.119L77.029,57.849a1.837,1.837,0,0,0-1.075-.223h-.005a3.245,3.245,0,0,0-1.319.452" transform="translate(321.907 60.219)" fill="#373b3e"/>
      <path id="Trazado_638108" data-name="Trazado 638108" d="M117.513,83.074l.078,27.347a3.188,3.188,0,0,0,.27,1.35,1.8,1.8,0,0,0,.722.815L44.156,69.333a1.612,1.612,0,0,1-.587-.581,1.207,1.207,0,0,1-.135-.228v-.01c-.031-.052-.052-.114-.083-.176a1.616,1.616,0,0,1-.052-.187,1.457,1.457,0,0,1-.047-.161,1.093,1.093,0,0,1-.031-.171l-.026-.156a.931.931,0,0,1-.016-.161l-.005-.161c0-.057-.01-.109-.01-.156v-.01l-.073-27.357Z" transform="translate(57.72 166.876)" fill="#2a2a2a"/>
      <path id="Trazado_638109" data-name="Trazado 638109" d="M293.075,57.714,218.649,14.456.667,140.31,75.1,183.563Z" transform="translate(103.463 60.586)" fill="#3e3e3e"/>
      <path id="Trazado_638110" data-name="Trazado 638110" d="M118.068,84.438l-.016.021a8.237,8.237,0,0,0-.716,1.63v.005a5.97,5.97,0,0,0-.26,1.661L42.656,44.5v-.14a.949.949,0,0,1,.01-.171l.005-.156c.005-.057.016-.109.026-.166s.01-.114.01-.171l.036-.161a.807.807,0,0,1,.042-.187,1.008,1.008,0,0,1,.036-.171c.016-.057.036-.119.047-.177l.042-.151v-.01l.005-.021a1.708,1.708,0,0,0,.057-.176c.026-.062.042-.119.062-.177s.042-.109.067-.161a1.608,1.608,0,0,1,.073-.166.547.547,0,0,1,.062-.161c.026-.057.047-.109.078-.166a1.879,1.879,0,0,1,.088-.177c.031-.073.068-.14.1-.208l.119-.213.01-.021.042-.078c.078-.13.166-.26.254-.395a2.893,2.893,0,0,1,.213-.3c.047-.073.093-.13.145-.2s.088-.1.13-.161.088-.1.13-.151a1.086,1.086,0,0,0,.125-.145l.021-.01c.042-.042.078-.088.125-.13a.752.752,0,0,1,.145-.14l.14-.135a1.727,1.727,0,0,1,.145-.13c.042-.031.093-.073.151-.109a.887.887,0,0,1,.13-.114l.145-.1.135-.083c.047-.036.1-.057.135-.088l.031-.021,74.436,43.258A5.6,5.6,0,0,0,119.117,83a7.925,7.925,0,0,0-1.049,1.438" transform="translate(58.156 162.195)" fill="#6c7072"/>
      <path id="Trazado_638111" data-name="Trazado 638111" d="M3.333,149.009,221.3,23.16c1.858-1.069,3.374-.208,3.385,1.926l.078,27.347a7.452,7.452,0,0,1-3.359,5.824l-6.048,3.483a10.354,10.354,0,0,0-2.845-2.32c.1.062.228.067.332.125L194.243,48.731a10.816,10.816,0,0,0-1.687-.779,9.057,9.057,0,0,0-1.36-.374l-.052-.016-.036-.01a10.1,10.1,0,0,0-1.2-.171c-.353-.031-.716-.057-1.075-.057-.327,0-.654.016-.976.031l-.2.026-.083.01c-.218.01-.42.036-.633.062-.306.036-.607.088-.908.151-.286.057-.561.119-.846.187s-.566.145-.851.234c-.2.062-.389.125-.581.192l-.067.021c-.057.026-.119.042-.176.067-.28.093-.555.2-.836.306s-.545.223-.825.348c-.265.119-.545.26-.825.389s-.561.286-.841.436c-.213.109-.436.239-.654.369-.067.036-.13.078-.208.119-.28.166-.576.348-.862.529s-.576.374-.872.571l-.888.633c-.311.228-.6.457-.908.7-.125.093-.244.2-.369.3a.939.939,0,0,1-.109.093c-.14.114-.291.234-.441.353-.311.265-.613.535-.914.8s-.613.555-.914.841c-.286.286-.581.571-.872.867-.213.218-.431.446-.644.685-.026.01-.036.036-.067.057a1.122,1.122,0,0,1-.13.14c-.27.3-.545.592-.8.893-.275.311-.535.618-.8.934s-.54.654-.8.992c-.306.4-.618.794-.919,1.2l-.005.031c-.021,0-.021.005-.026.026-.441.592-.877,1.2-1.287,1.822-.54.8-1.059,1.64-1.547,2.471-.057.093-.1.182-.156.28-.042.067-.083.145-.125.228-.254.436-.5.872-.742,1.319-.223.41-.436.831-.644,1.241-.187.379-.358.742-.535,1.106-.156.332-.306.67-.457,1.007-.026.052-.042.1-.067.145l-.021.047c-.109.27-.228.535-.337.794-.14.343-.275.675-.41,1.007s-.254.685-.374,1.028c-.135.348-.249.7-.374,1.054s-.234.706-.348,1.064a.717.717,0,0,1-.042.151l-.016.052q-.132.444-.265.9c-.088.353-.2.722-.28,1.09s-.177.716-.254,1.085c-.073.353-.151.711-.218,1.069-.062.327-.119.644-.161.96v.031l-.021.057c-.057.343-.1.69-.151,1.033-.036.332-.078.675-.1,1.007-.042.332-.062.664-.083,1s-.036.659-.042.986c-.016.306-.016.623-.016.929v.062c0,.327.005.664.021.992s.036.644.057.966.062.664.109.992.088.654.145.976c.026.151.057.3.088.452a.5.5,0,0,0,.036.13,3.847,3.847,0,0,0,.078.426c.078.358.171.706.275,1.049.1.374.228.737.358,1.085.073.187.151.348.223.535L99.743,128.494a10.517,10.517,0,0,0-2.4-1.843c.1.057.234.062.332.13L79.072,115.957a10.6,10.6,0,0,0-1.687-.779c-.436-.145-.893-.265-1.36-.374l-.052-.005-.047-.016c-.389-.078-.784-.135-1.189-.177-.353-.031-.706-.047-1.085-.047-.317,0-.638.005-.966.031-.067,0-.135.016-.2.016l-.088.016c-.208.016-.42.031-.633.062-.3.042-.607.088-.908.145-.275.057-.561.119-.851.192s-.561.151-.851.239c-.187.052-.384.119-.576.182a.122.122,0,0,1-.067.026c-.057.021-.119.036-.182.062-.275.093-.55.2-.831.306s-.545.228-.825.348-.545.254-.831.395-.555.28-.836.436c-.218.119-.436.239-.654.363-.068.036-.13.078-.2.119-.286.166-.581.348-.862.529-.3.182-.592.379-.877.581-.3.208-.592.41-.9.628s-.6.462-.893.69c-.13.093-.249.208-.374.3a.805.805,0,0,1-.1.083c-.151.119-.3.239-.446.369-.3.254-.613.524-.914.8-.3.265-.613.545-.914.841-.3.275-.576.566-.862.857-.228.223-.436.452-.654.68l-.062.062c-.036.052-.1.1-.135.145-.28.291-.54.6-.81.9s-.53.623-.794.94-.54.649-.8.981c-.311.4-.623.8-.924,1.2l-.016.026-.005.016c-.457.6-.872,1.215-1.3,1.832-.54.815-1.054,1.635-1.547,2.481a2.764,2.764,0,0,1-.161.265,1.663,1.663,0,0,1-.125.234c-.254.436-.5.872-.737,1.324-.223.41-.436.825-.654,1.246-.182.369-.358.732-.529,1.1-.151.327-.306.675-.452,1-.026.052-.042.1-.062.145l-.026.057c-.114.265-.228.524-.343.794-.135.332-.27.67-.4,1.007s-.249.675-.379,1.012c-.13.353-.254.711-.374,1.059s-.228.716-.332,1.075a.494.494,0,0,0-.047.14l-.021.057c-.088.3-.171.6-.26.9-.1.363-.2.732-.285,1.1s-.177.722-.254,1.075-.151.727-.213,1.085c-.067.317-.119.633-.166.96l-.01.016-.01.062c-.052.348-.1.7-.151,1.033-.036.337-.078.675-.109,1.007s-.057.67-.078,1-.031.665-.047,1c-.01.311-.01.618-.01.919v.067c0,.332.01.665.026.992s.031.649.052.955c.036.348.067.675.1,1,.052.332.093.659.151.976.026.161.057.3.088.452l.026.13c.026.145.057.291.088.436.083.353.176.706.265,1.049.114.348.228.68.348,1.012L3.431,184.1c-1.822,1.054-3.343.187-3.354-1.947L0,154.808a7.38,7.38,0,0,1,3.333-5.8" transform="translate(175.233 95.142)" fill="#212121"/>
      <path id="Trazado_638112" data-name="Trazado 638112" d="M116.269,66.595,41.849,23.347l.218,77.234L116.5,143.834Z" transform="translate(66.258 97.853)" fill="#959595"/>
      <path id="Trazado_638113" data-name="Trazado 638113" d="M285.8,43.247,211.378,0,1.453,121.2l74.421,43.253Z" transform="translate(106.654 -0.001)" fill="#ddd"/>
      <path id="Trazado_638114" data-name="Trazado 638114" d="M1.412,129.534l.228,77.239L211.555,85.58l-.213-77.25Z" transform="translate(181.115 34.914)" fill="#bebebe"/>
      <path id="Trazado_638115" data-name="Trazado 638115" d="M124.613,85.24v2.4L46.466,42.226v-2.4Z" transform="translate(34.175 166.902)" fill="#2a2a2a"/>
      <path id="Trazado_638116" data-name="Trazado 638116" d="M47.605,39.665l78.153,45.418-1.412.82L46.193,40.48Z" transform="translate(34.445 166.242)" fill="#3d4245"/>
      <path id="Trazado_638117" data-name="Trazado 638117" d="M168.162,85.7,90.014,40.285,46.466,65.426l78.143,45.423Z" transform="translate(-9.373 168.843)" fill="#3e3e3e"/>
      <path id="Trazado_638118" data-name="Trazado 638118" d="M63.026,45.923l78.148,45.412-7.418,14.525L55.608,60.453Z" transform="translate(-29.844 192.471)" fill="#2a2a2a"/>
      <path id="Trazado_638119" data-name="Trazado 638119" d="M49.322,55.264l7.709-3.348,10.362,3.841L77.728,70.038l-31.183-12Z" transform="translate(80.648 217.59)"/>
      <path id="Trazado_638120" data-name="Trazado 638120" d="M133,94.663,54.856,49.251l.052-.114c.067-.109.125-.218.187-.332.109-.177.228-.353.337-.524.078-.125.166-.239.254-.353.062-.093.125-.171.192-.26.052-.067.119-.14.182-.218s.119-.145.182-.218.135-.151.2-.218.125-.13.192-.192v-.01l.021-.021c.083-.078.161-.156.239-.234s.161-.161.249-.239.176-.151.26-.218c.088-.083.176-.151.265-.223s.182-.135.27-.2.176-.13.26-.192.176-.119.254-.166.177-.1.254-.156l.062-.036,78.143,45.418a10.068,10.068,0,0,0-2.128,1.687h-.005A10.327,10.327,0,0,0,133,94.663" transform="translate(-21.674 189.144)" fill="#6c7072"/>
      <path id="Trazado_638121" data-name="Trazado 638121" d="M74.666,48.721l78.148,45.412L135.18,104.319,57.037,58.9Z" transform="translate(-48.902 204.2)" fill="#3e3e3e"/>
      <path id="Trazado_638122" data-name="Trazado 638122" d="M61.249,51.372l.026.01a3.318,3.318,0,0,0,.945.042h.016a4.127,4.127,0,0,0,1.038-.218l.016-.01a6.151,6.151,0,0,0,1.132-.514L142.563,96.1c-.057.031-.119.062-.177.1-.073.036-2.492,2.352-5.056,1.287l-76.9-46.419a3.006,3.006,0,0,0,.815.306" transform="translate(-56.286 212.417)" fill="#323232"/>
      <path id="Trazado_638123" data-name="Trazado 638123" d="M140.033,101.213l.01.01a1.625,1.625,0,0,0,.633.675L62.529,56.486a1.551,1.551,0,0,1-.55-.535,1.042,1.042,0,0,1-.088-.151l-.005-.005-.016-.031L61.8,55.6l-.042-.145a.945.945,0,0,1-.042-.13l-.021-.119a.5.5,0,0,1-.016-.119,1.27,1.27,0,0,0-.016-.13.464.464,0,0,0-.01-.119v-.13l78.143,45.423a2.565,2.565,0,0,0,.239,1.08" transform="translate(-60.723 229.303)" fill="#35393b"/>
      <path id="Trazado_638124" data-name="Trazado 638124" d="M61.822,49.435l78.143,45.418.078,27.389L61.9,76.824Z" transform="translate(-60.969 207.192)" fill="#35393b"/>
      <path id="Trazado_638125" data-name="Trazado 638125" d="M139.669,97.917,61.526,52.5v-.1l.01-.109.01-.119v-.114l.031-.119.01-.125.036-.125a.96.96,0,0,1,.021-.13,1.018,1.018,0,0,1,.042-.135c.016-.042.021-.088.036-.135s.031-.088.042-.135l.047-.135a1.292,1.292,0,0,0,.057-.135.568.568,0,0,1,.057-.14l.036-.1v-.01l.021-.036.068-.145c.021-.057.052-.1.073-.156.042-.067.073-.14.109-.2.047-.1.109-.2.166-.306.1-.182.223-.363.343-.545.078-.119.166-.239.254-.358.052-.062.1-.13.135-.182l78.153,45.412a8.861,8.861,0,0,0-1.168,1.936,4.823,4.823,0,0,0-.446,1.864" transform="translate(-60.675 204.131)" fill="#323537"/>
      <path id="Trazado_638126" data-name="Trazado 638126" d="M135.807,93.312a5.21,5.21,0,0,0,.446,2.232,3.056,3.056,0,0,0,1.2,1.36L63.027,53.651a3,3,0,0,1-.986-.96c-.073-.13-.145-.254-.208-.389l-.01-.01c-.047-.1-.093-.2-.135-.306l-.093-.3c-.026-.088-.047-.182-.067-.286a2.065,2.065,0,0,1-.057-.27c-.021-.088-.026-.176-.042-.26s-.016-.177-.021-.275c-.01-.078-.021-.161-.026-.26v-.275Z" transform="translate(-56.091 209.827)" fill="#003655"/>
      <path id="Trazado_638127" data-name="Trazado 638127" d="M105.6,28.086l74.436,43.253q-29.488,17.03-58.935,34.023L46.675,62.114Q76.163,45.084,105.6,28.086" transform="translate(-22.334 117.714)" fill="#005a87"/>
      <path id="Trazado_638128" data-name="Trazado 638128" d="M58.033,67.013c.016-.306.026-.618.047-.919s.042-.623.073-.929.073-.618.114-.929.078-.638.135-.955l.005-.067.01-.031c.042-.3.093-.587.14-.877.073-.332.14-.67.208-1,.078-.343.151-.675.239-1.007s.166-.685.27-1.028c.073-.28.151-.555.239-.836l.026-.057a.312.312,0,0,1,.031-.119c.1-.337.208-.659.317-1s.218-.654.348-.981c.109-.317.228-.633.348-.955.13-.306.249-.618.384-.94.1-.239.2-.488.317-.742l.016-.052a1.259,1.259,0,0,0,.057-.119c.14-.317.286-.633.426-.94.161-.343.327-.685.5-1.017.2-.389.395-.768.592-1.158.228-.42.467-.825.7-1.241.042-.067.083-.14.119-.213.057-.088.1-.177.14-.254.472-.784.95-1.557,1.448-2.3.389-.576.779-1.137,1.184-1.692l.031-.042.005-.016c.291-.379.576-.753.867-1.126.249-.311.493-.618.747-.919s.493-.592.737-.872c.26-.28.5-.555.758-.836l.119-.125.057-.062c.2-.208.4-.426.607-.644.27-.265.54-.524.81-.794s.566-.524.846-.784.566-.5.851-.742c.14-.114.27-.223.4-.337l.093-.073c.119-.1.234-.2.353-.286.28-.218.555-.436.836-.639s.555-.395.831-.592c.27-.182.54-.363.81-.53s.535-.343.8-.5l.187-.1L151.64,77.889a28.358,28.358,0,0,0-3.815,2.658.892.892,0,0,0-.1.078,37.881,37.881,0,0,0-3.514,3.3l-.057.062a43.833,43.833,0,0,0-3.234,3.888l-.021.036a44.954,44.954,0,0,0-2.777,4.252c-.042.067-.073.14-.119.213a46.5,46.5,0,0,0-2.263,4.485l-.021.042a44.294,44.294,0,0,0-1.76,4.734l-.005.062a34.4,34.4,0,0,0-1.106,4.745l-.005.016a28.95,28.95,0,0,0-.379,4.667q.039,15.566.083,31.225l.047,15.6L58.163,114.7l-.052-15.62q-.031-15.612-.083-31.209c0-.291,0-.576.005-.862" transform="translate(-52.873 145.187)" fill="#00446f"/>
      <path id="Trazado_638129" data-name="Trazado 638129" d="M59.376,64.656c.01-.27.021-.54.042-.815s.036-.55.062-.825l.093-.836c.042-.286.083-.571.119-.857l.01-.042.005-.042c.047-.26.088-.519.135-.784.057-.3.119-.592.182-.888s.135-.6.218-.908q.1-.444.234-.9c.073-.249.14-.5.218-.753l.016-.047a.471.471,0,0,0,.031-.114c.088-.291.182-.587.286-.882s.2-.592.306-.883.208-.566.322-.846.213-.555.332-.841c.1-.218.192-.446.286-.659l.021-.047a.6.6,0,0,1,.052-.119c.119-.275.244-.555.379-.831.135-.3.286-.607.436-.9.176-.353.353-.7.535-1.033.2-.384.415-.742.618-1.116.036-.062.073-.125.114-.187.041-.078.078-.161.125-.234.415-.7.841-1.381,1.287-2.056.348-.509.7-1.012,1.059-1.511l.031-.026.005-.021c.254-.337.509-.675.768-1.007.223-.275.446-.545.664-.82s.441-.519.664-.784c.218-.244.441-.488.675-.737.031-.036.068-.067.109-.109l.042-.047c.182-.2.363-.389.555-.581.228-.239.478-.483.711-.716.254-.239.509-.467.758-.7s.509-.446.763-.67l.358-.3a.389.389,0,0,0,.083-.067c.1-.088.213-.176.317-.254.244-.2.5-.379.748-.561.244-.2.493-.369.737-.535s.488-.327.732-.478c.228-.151.478-.3.716-.446l.161-.093,66.457,38.627a27.081,27.081,0,0,0-3.405,2.362l-.083.073a32.137,32.137,0,0,0-3.146,2.943l-.047.057a39.352,39.352,0,0,0-2.891,3.478l-.016.031a39.043,39.043,0,0,0-2.476,3.795c-.042.062-.073.125-.109.192a39.69,39.69,0,0,0-2.025,4.008l-.026.031a37.777,37.777,0,0,0-1.557,4.231l-.016.047a31.694,31.694,0,0,0-.981,4.246l-.01.021a26.561,26.561,0,0,0-.337,4.158q.039,13.907.088,27.882l.036,13.938L59.485,107.25l-.036-13.938Q59.41,79.35,59.366,65.43c0-.26,0-.509.01-.773" transform="translate(-51.133 149.843)" fill="#6dd4f0"/>
      <path id="Trazado_638130" data-name="Trazado 638130" d="M65.828,70.441Q95.3,53.427,124.763,36.418l.171,63.374-43.518,25.13a10.248,10.248,0,0,0-3.909,4.106l-7.455,14.52L52.46,153.707c-3.1,1.786-5.679.369-5.684-3.2l-.052-15.6q-.047-15.636-.083-31.225C46.6,91.517,55.248,76.551,65.828,70.441" transform="translate(32.945 152.634)" fill="#003655"/>
      <path id="Trazado_638131" data-name="Trazado 638131" d="M135.961,80.9l.016,3.525a2.871,2.871,0,0,0,.234,1.2,1.581,1.581,0,0,0,.644.716L62.423,43.1a1.6,1.6,0,0,1-.524-.514,1.288,1.288,0,0,1-.109-.208l-.01-.01-.062-.161c-.016-.042-.031-.1-.057-.156a.8.8,0,0,0-.036-.151l-.026-.14c-.016-.052-.016-.1-.026-.145l-.01-.151-.01-.135a.663.663,0,0,1-.01-.145v-.005l-.005-3.525Z" transform="translate(-56.292 157.806)" fill="#00446f"/>
      <path id="Trazado_638132" data-name="Trazado 638132" d="M80.119,33.864l74.716,42.8-23.874,14.9L56.531,48.306Z" transform="translate(-48.295 141.931)" fill="#005a87"/>
      <path id="Trazado_638133" data-name="Trazado 638133" d="M136.438,82.147l-.01.021a7.608,7.608,0,0,0-.633,1.469l-.005.01a5.353,5.353,0,0,0-.234,1.479L61.13,41.868v-.13l.01-.145a.7.7,0,0,1,.016-.151l.01-.14a.548.548,0,0,1,.026-.161l.026-.156a1.029,1.029,0,0,0,.031-.156c.005-.047.026-.1.036-.161a1.358,1.358,0,0,1,.042-.156l.042-.125.005-.042c.021-.047.031-.1.052-.156a1.385,1.385,0,0,1,.057-.156c.021-.052.036-.1.062-.161a1,1,0,0,1,.057-.14.715.715,0,0,1,.062-.151.962.962,0,0,1,.068-.151l.073-.151c.036-.073.068-.125.1-.192L62,38.92l.016-.026a.322.322,0,0,1,.057-.088,3.9,3.9,0,0,1,.213-.348c.062-.088.125-.182.192-.27.042-.057.083-.119.13-.177l.119-.14a1.662,1.662,0,0,1,.114-.14l.119-.13.119-.13.125-.119.13-.119c.047-.036.088-.078.135-.119l.125-.1c.047-.036.088-.078.125-.109a.64.64,0,0,0,.13-.088l.13-.078c.042-.021.078-.052.119-.067l.031-.026L138.551,79.9a4.944,4.944,0,0,0-1.168.945,7.168,7.168,0,0,0-.945,1.3" transform="translate(-55.887 153.59)" fill="#003655"/>
      <path id="Trazado_638134" data-name="Trazado 638134" d="M60.359,54.652l19.55-11.981L64.834,62.532,60.39,65.107c-1.661.955-3.011.182-3.011-1.713l-.016-3.525a6.691,6.691,0,0,1,3-5.217" transform="translate(22.305 178.842)" fill="#003655"/>
      <path id="Trazado_638135" data-name="Trazado 638135" d="M57.009,53.041a7.71,7.71,0,0,0-3.514,6.027l.1,35.606c.01,2.014,1.386,3.244,3.094,2.258a2.89,2.89,0,0,0,.446-.3l17.209-9.261c1.905-1.5,3.468-3.81,3.463-6.063l-.078-36.478c-.01-2.2-1.583-3.089-3.488-1.988Z" transform="translate(44.493 177.593)" fill="#58c8e6"/>
      <path id="Trazado_638136" data-name="Trazado 638136" d="M61.711,50.2a48.322,48.322,0,0,0-2.554,14.945l.031,29.989,8.368-6.515c1.853-1.469,3.468-3.805,3.463-6l-.052-33.774c0-2.185-1.568-3.089-3.483-1.988Z" transform="translate(21.887 194.431)" fill="#58c8e6"/>
      <path id="Trazado_638137" data-name="Trazado 638137" d="M46.878,66.363c.078-.285.161-.566.249-.857.083-.265.176-.535.26-.8.088-.254.176-.5.265-.763.088-.234.171-.472.265-.711.088-.223.177-.446.27-.664l.073-.161.016-.042.182-.446c.1-.208.2-.426.3-.633s.208-.436.312-.644c.125-.249.254-.5.384-.742.187-.353.384-.69.581-1.043s.431-.69.649-1.038a1.666,1.666,0,0,1,.109-.156c.052-.088.093-.166.151-.249.218-.332.452-.659.69-.976.161-.223.322-.436.488-.649.145-.187.286-.358.436-.545.145-.161.3-.337.441-.514s.3-.332.462-.493c.151-.176.317-.343.478-.514l.249-.239.031-.042c.078-.078.156-.145.234-.223.182-.171.363-.337.545-.514s.379-.332.581-.5.384-.327.592-.493c.208-.151.4-.311.623-.467.2-.151.42-.3.638-.452s.436-.3.654-.431.446-.28.664-.41l42.028-23.807L175.2,69.395,133.716,93.227a22.766,22.766,0,0,0-4.532,3.494l-.042.036a25.874,25.874,0,0,0-3.4,4.179,1.671,1.671,0,0,1-.1.161,29.873,29.873,0,0,0-2.409,4.542l-.016.036a33.185,33.185,0,0,0-1.578,4.724L46.681,67.116c.062-.244.125-.5.2-.753" transform="translate(-17.533 109.566)" fill="#005a87"/>
      <path id="Trazado_638138" data-name="Trazado 638138" d="M100.236,34.474,58.749,58.307c-6.842,4.023-10.5,10.953-12.075,17.172l53.6-30.623Z" transform="translate(57.435 144.487)" fill="#003655"/>
      <path id="Trazado_638139" data-name="Trazado 638139" d="M56.259,42.074c.088-.265.176-.535.26-.8.088-.254.177-.5.265-.763.088-.239.171-.472.27-.711.088-.223.176-.446.27-.67l.067-.156.021-.042.182-.446c.093-.208.192-.426.3-.633s.2-.436.306-.644c.13-.249.254-.5.389-.748.187-.348.384-.685.581-1.038s.426-.69.649-1.038c.036-.047.068-.114.1-.156a2.888,2.888,0,0,1,.151-.249c.223-.332.457-.659.7-.981.156-.218.322-.436.488-.649.145-.182.286-.353.436-.54l.068-.073,75.178,43.248a26.993,26.993,0,0,0-2.061,2.523.715.715,0,0,1-.1.156,29.43,29.43,0,0,0-2.4,4.547l-.016.036a32.374,32.374,0,0,0-1.583,4.724L55.813,43.683c.067-.249.13-.5.2-.753.083-.286.161-.566.249-.857" transform="translate(-26.67 132.999)" fill="#00446f"/>
      <path id="Trazado_638140" data-name="Trazado 638140" d="M139.967,92.877l.078,37.947a2.423,2.423,0,0,0,.228,1.08l.01.016a1.67,1.67,0,0,0,.639.675L62.774,87.172a1.517,1.517,0,0,1-.556-.519,1.088,1.088,0,0,1-.078-.156l-.01-.01-.021-.026c-.026-.052-.042-.114-.062-.161A1.111,1.111,0,0,1,62,86.16c-.005-.042-.026-.088-.031-.135a.356.356,0,0,1-.026-.119l-.021-.125-.01-.119-.005-.119v-.13l-.088-37.947Z" transform="translate(-61.809 198.934)" fill="#2a2a2a"/>
      <path id="Trazado_638141" data-name="Trazado 638141" d="M139.841,95.945,61.688,50.533l.005-.109V50.31l.021-.109.01-.119a.463.463,0,0,1,.01-.119.984.984,0,0,0,.026-.119l.021-.13a.365.365,0,0,0,.031-.13l.042-.13a.828.828,0,0,1,.042-.135,1.378,1.378,0,0,1,.036-.14c.021-.042.031-.088.052-.14a.706.706,0,0,1,.057-.13c.01-.052.031-.1.042-.145a.5.5,0,0,0,.052-.093l.016-.042a1.216,1.216,0,0,0,.062-.145c.031-.062.057-.109.078-.161.041-.067.073-.13.109-.2.052-.1.109-.2.161-.306.114-.182.223-.369.353-.54.078-.125.161-.244.249-.363.052-.062.088-.119.14-.182L141.45,92.145a9.329,9.329,0,0,0-1.168,1.936v.005a4.724,4.724,0,0,0-.441,1.858" transform="translate(-61.683 195.866)" fill="#3e3e3e"/>
      <path id="Trazado_638142" data-name="Trazado 638142" d="M61.687,55.482l.021,17.572c.01,3.561,2.549,5.051,5.648,3.255l2.637-1.516.052,20.567-5.4,3.11c-2.461,1.428-4.485.893-4.49-1.241l-.062-23.724-.016-14.224a6.765,6.765,0,0,1,1.609-3.8" transform="translate(18.08 232.535)" fill="#212121"/>
      <path id="Trazado_638143" data-name="Trazado 638143" d="M77.064,64.206l.01,3.566a2.784,2.784,0,0,0,.239,1.189,1.608,1.608,0,0,0,.633.732L64.434,61.906a1.576,1.576,0,0,1-.524-.509c-.036-.062-.078-.13-.114-.208l-.005-.01a1.62,1.62,0,0,1-.062-.156,1.173,1.173,0,0,1-.052-.161,1.048,1.048,0,0,1-.042-.151l-.026-.14a.751.751,0,0,1-.021-.151c-.01-.047-.01-.1-.021-.145l-.01-.135V59.99l-.01-3.566Z" transform="translate(-7.824 236.483)" fill="#bf8100"/>
      <path id="Trazado_638144" data-name="Trazado 638144" d="M63.107,60.557c0-.047.01-.1.01-.156l.01-.14a.607.607,0,0,1,.021-.14.8.8,0,0,1,.021-.156l.026-.151a1.028,1.028,0,0,1,.031-.156.41.41,0,0,1,.041-.151.8.8,0,0,1,.036-.161.673.673,0,0,1,.042-.135l.01-.031a.473.473,0,0,1,.042-.151,1.275,1.275,0,0,0,.047-.151l.057-.151a1.219,1.219,0,0,0,.062-.145l.067-.151c.016-.047.042-.093.062-.14l.073-.156c.031-.062.062-.119.1-.187s.073-.135.109-.2l.01-.016.021-.047c.073-.119.14-.239.223-.358.062-.088.125-.187.192-.27a1.552,1.552,0,0,1,.13-.177l.119-.14c.042-.047.083-.1.119-.135l.114-.14.026-.021.1-.1a1.361,1.361,0,0,1,.13-.114.769.769,0,0,1,.13-.13l.13-.119.13-.1c.047-.031.088-.073.135-.1s.088-.062.13-.1a.545.545,0,0,0,.125-.078c.047-.021.083-.052.125-.073l.031-.021.166-.1,13.523,7.782-.176.1a5.286,5.286,0,0,0-1.158.945,6.376,6.376,0,0,0-.955,1.287l-.005.01a7.921,7.921,0,0,0-.639,1.464,5.147,5.147,0,0,0-.228,1.474L63.107,60.692Z" transform="translate(-7.385 232.221)" fill="#fdcd31"/>
      <path id="Trazado_638145" data-name="Trazado 638145" d="M66.088,57l.177-.1.021,10.465-.166.093c-1.651.955-3,.187-3.006-1.713l-.01-3.566A6.586,6.586,0,0,1,66.088,57" transform="translate(6.137 238.503)" fill="#db9e00"/>
      <path id="Trazado_638146" data-name="Trazado 638146" d="M87.333,58.006l.01,3.556a2.83,2.83,0,0,0,.244,1.2,1.486,1.486,0,0,0,.639.722L74.708,55.706a1.486,1.486,0,0,1-.524-.509,1.946,1.946,0,0,1-.109-.208l-.01-.01A1.381,1.381,0,0,1,74,54.823c-.026-.057-.036-.1-.057-.161l-.036-.151a.681.681,0,0,1-.031-.14l-.021-.156-.01-.14a.548.548,0,0,1-.01-.135.686.686,0,0,1-.01-.151v-.01l-.005-3.556Z" transform="translate(-71.437 210.498)" fill="#bf8100"/>
      <path id="Trazado_638147" data-name="Trazado 638147" d="M73.382,54.351c0-.052.01-.1.01-.151l.01-.14.021-.145a1.336,1.336,0,0,1,.016-.151c.01-.047.016-.1.031-.151l.026-.161.042-.145c.01-.057.031-.114.036-.161l.041-.135V53l.005-.021c.016-.052.036-.1.047-.151a1.431,1.431,0,0,0,.057-.151,1.154,1.154,0,0,0,.057-.156l.057-.151c.021-.047.047-.088.067-.14s.042-.1.068-.145a1.087,1.087,0,0,1,.078-.156c.031-.057.052-.119.083-.182l.119-.2.01-.016.026-.042c.073-.119.14-.249.218-.358l.192-.275c.047-.062.088-.119.135-.171s.083-.1.119-.145l.114-.14.119-.13.021-.021c.036-.031.067-.073.1-.109s.083-.083.13-.119a1.351,1.351,0,0,1,.125-.119c.047-.042.088-.083.135-.119a.98.98,0,0,1,.135-.114l.125-.093c.047-.031.088-.067.13-.1a.727.727,0,0,0,.125-.078.553.553,0,0,0,.13-.083l.031-.01.166-.1,13.518,7.782-.171.1a5.03,5.03,0,0,0-1.158.945h-.01a6.871,6.871,0,0,0-.945,1.282l-.01.016a7.173,7.173,0,0,0-.633,1.454v.005a5.177,5.177,0,0,0-.239,1.479L73.382,54.486Z" transform="translate(-70.999 206.235)" fill="#fdcd31"/>
      <path id="Trazado_638148" data-name="Trazado 638148" d="M76.372,50.8l.171-.1.026,10.465-.166.093c-1.656.955-3.006.182-3.016-1.723l-.01-3.556a6.611,6.611,0,0,1,3-5.181" transform="translate(-57.482 212.518)" fill="#db9e00"/>
      <path id="Trazado_638149" data-name="Trazado 638149" d="M47.125,97.19l.016,7.008c.021,3.566,3.219,3.193,6.312,1.407L71.087,95.42,78.511,80.9a10.523,10.523,0,0,1,3.9-4.117l43.554-25.151v-2.4l1.417-.815.088,35.061-1.91,1.1a9.968,9.968,0,0,0-.846-.654c.088.052.218.067.327.119L106.429,73.233a9.571,9.571,0,0,0-3.037-1.152l-.057-.016-.042-.01a11.01,11.01,0,0,0-1.194-.171,10.493,10.493,0,0,0-1.075-.052c-.317-.005-.644.01-.976.026-.062.005-.13.016-.192.026l-.088.005c-.213.026-.426.036-.644.062-.3.042-.6.093-.9.151-.28.057-.566.119-.841.192s-.571.151-.857.239c-.192.057-.379.119-.581.182l-.062.026c-.062.021-.119.031-.182.057-.28.088-.55.2-.836.317-.265.109-.54.218-.82.348s-.555.249-.831.389-.555.275-.846.436c-.208.119-.431.239-.649.363-.057.042-.135.083-.2.119-.3.171-.587.343-.862.524-.3.192-.587.379-.872.581-.306.208-.607.421-.9.633s-.6.457-.9.69c-.119.093-.249.2-.363.3l-.1.088c-.151.119-.3.239-.446.358-.306.26-.607.529-.919.8s-.6.555-.908.846c-.291.275-.587.561-.872.857-.213.223-.426.452-.649.68l-.057.068a1.715,1.715,0,0,0-.135.14c-.28.3-.545.587-.8.893s-.545.618-.8.934-.535.654-.794.981c-.317.4-.628.8-.929,1.22l-.005.01-.021.036c-.441.6-.872,1.2-1.287,1.827-.535.8-1.054,1.63-1.552,2.466-.047.088-.1.192-.156.28a2.458,2.458,0,0,0-.119.234c-.26.436-.514.872-.753,1.313-.218.415-.436.831-.639,1.246-.187.369-.358.732-.535,1.106-.156.332-.306.664-.457,1.007-.016.042-.042.088-.067.14l-.01.052c-.119.26-.234.529-.348.8-.14.327-.275.67-.4,1.007s-.26.675-.379,1.012c-.125.353-.254.7-.374,1.054s-.228.722-.337,1.08a.79.79,0,0,0-.042.135l-.021.052c-.088.306-.176.607-.26.9-.1.363-.2.737-.285,1.1s-.171.716-.249,1.08-.156.716-.228,1.075c-.052.327-.119.644-.166.96v.021l-.005.057c-.057.348-.1.7-.151,1.038s-.083.67-.114,1.007-.052.67-.078,1-.042.659-.052,1c0,.306-.01.613-.01.919l.01.052c0,.348,0,.664.01.992s.031.654.067.971c.021.343.062.67.1.992s.083.659.14.976c.036.161.067.306.093.457l.026.119c.036.14.047.291.088.436.026.1.047.2.067.291l-20.941,12.1c-2.461,1.422-4.5.877-4.5-1.246l-.078-27.389c0-1.173-.026-.685.95-1.947" transform="translate(32.824 202.912)" fill="#212121"/>
    </g>
  </g>
</svg>
